<svg width="81" height="78" viewBox="0 0 81 78" fill="none" xmlns="http://www.w3.org/2000/svg">
<mask id="mask0_16_60" style="mask-type:luminance" maskUnits="userSpaceOnUse" x="0" y="0" width="81" height="78">
<path d="M0 0H80.1642V78H0V0Z" fill="white"/>
</mask>
<g mask="url(#mask0_16_60)">
<path d="M72.2633 0H37.7545C32.9801 1.26196 30.0654 4.15549 29.739 9.40997C29.7718 10.4216 29.8043 11.4337 29.8371 12.4345C29.8371 14.2836 29.8263 16.0025 29.8371 17.7322C29.8371 20.3975 29.8155 23.0736 29.8263 25.7389H7.87897C7.64555 25.7877 7.41401 25.8445 7.18435 25.9098C6.95469 25.9746 6.72785 26.0474 6.50335 26.1282C6.27886 26.209 6.05718 26.2973 5.83879 26.3931C5.6204 26.4894 5.40577 26.5927 5.19443 26.7035C4.98308 26.8144 4.77597 26.9327 4.57308 27.0581C4.36972 27.1831 4.17152 27.3155 3.97756 27.4545C3.78359 27.5935 3.59479 27.7391 3.41116 27.8913C3.22705 28.0435 3.04905 28.2017 2.87622 28.3661C2.70339 28.531 2.53619 28.701 2.3751 28.8771C2.21448 29.0532 2.05949 29.235 1.91108 29.4214C1.76267 29.6083 1.62084 29.8 1.48558 29.9967C1.35032 30.1935 1.22257 30.3945 1.10093 30.6003C0.979761 30.8055 0.866105 31.015 0.759024 31.2286C0.652413 31.4419 0.553316 31.6588 0.461733 31.8791C0.370151 32.0994 0.286083 32.3225 0.209999 32.5488C0.133446 32.7747 0.065346 33.0035 0.00476074 33.2345V55.7314C0.0681638 56.3081 0.198258 56.8698 0.395043 57.416C0.591827 57.9618 0.849667 58.4775 1.16856 58.9621C1.39869 59.2815 1.64996 59.5821 1.92329 59.8648C2.1971 60.1475 2.48923 60.4087 2.80014 60.6491C3.11152 60.8896 3.4384 61.1061 3.78077 61.2996C4.12315 61.4926 4.47774 61.6598 4.84454 61.8017C5.55747 62.144 6.29952 62.4042 7.07022 62.5822C7.84092 62.7602 8.62149 62.8518 9.41238 62.857H11.9246V70.015C11.9898 72.6694 12.0659 75.3347 12.1312 78C13.4148 76.7817 14.5133 75.7156 15.3723 74.8777C18.0695 72.2345 19.3855 70.8852 21.017 69.1447C22.3983 67.6869 22.4631 67.6 23.1159 66.9256C26.0959 63.8141 26.8788 63.4445 27.2813 63.2811C27.6828 63.1096 28.0985 62.9842 28.5277 62.9053C28.957 62.8264 29.39 62.7959 29.8263 62.8133C33.5023 62.9547 37.1891 62.8786 40.8759 62.857C41.0323 62.8635 41.1886 62.8664 41.3446 62.865C41.501 62.8635 41.6574 62.8579 41.8133 62.8485C41.9697 62.8387 42.1251 62.825 42.2806 62.8077C42.4361 62.7898 42.5906 62.7682 42.7451 62.7428C42.8991 62.717 43.0527 62.6874 43.2053 62.6536C43.358 62.6203 43.5097 62.5827 43.6604 62.5409C43.8112 62.4996 43.961 62.4545 44.1094 62.4052C44.2578 62.3559 44.4048 62.3028 44.5504 62.246C44.696 62.1891 44.8402 62.1285 44.9825 62.0637C45.1248 61.9994 45.2657 61.9318 45.4047 61.8599C45.5437 61.7885 45.6809 61.7129 45.8157 61.6345C45.9509 61.5556 46.0838 61.4734 46.2149 61.3874C46.3454 61.3019 46.4741 61.2132 46.6 61.1207C46.7263 61.0281 46.8503 60.9328 46.9715 60.8342C47.0927 60.7351 47.211 60.6336 47.327 60.5284C47.443 60.4237 47.5562 60.3157 47.6666 60.2048C47.7769 60.094 47.8845 59.9808 47.9888 59.8643C48.0935 59.7479 48.1949 59.629 48.2931 59.5074C48.3913 59.3858 48.4866 59.2618 48.5782 59.135C48.6702 59.0086 48.759 58.8795 48.844 58.7484C48.929 58.6174 49.0107 58.484 49.0892 58.3488C49.1676 58.2135 49.2423 58.0759 49.3132 57.9369C49.3846 57.7974 49.4522 57.6565 49.5156 57.5137C49.5795 57.371 49.6396 57.2268 49.6959 57.0807C49.7523 56.9351 49.8049 56.7876 49.8538 56.6392C49.9026 56.4904 49.9472 56.3405 49.9881 56.1898C50.0294 56.039 50.066 55.8868 50.0994 55.7342C50.1323 55.5811 50.1614 55.4275 50.1867 55.273C50.2116 55.119 50.2328 54.964 50.2497 54.8085C50.267 54.6531 50.2802 54.4971 50.2891 54.3412C50.298 54.1848 50.3027 54.0289 50.3037 53.8725C50.3046 53.7161 50.3013 53.5597 50.2943 53.4033C50.3272 50.096 50.3051 46.7784 50.3051 43.4711V38.1842L50.338 37.0744C50.7705 37.0575 51.1998 37.0885 51.6258 37.1674C52.0513 37.2463 52.4631 37.3712 52.8609 37.5422C53.2526 37.7056 54.0355 38.0644 57.0155 41.1867C57.6678 41.8611 57.7444 41.948 59.1144 43.4058C60.7567 45.1464 62.0727 46.4952 64.7699 49.1389C65.6181 49.9767 66.7167 51.0428 68.011 52.2611C68.0763 49.5958 68.1416 46.9343 68.2069 44.2761V37.1181H70.7298C71.5189 37.112 72.298 37.0204 73.0664 36.8424C73.8352 36.6639 74.5754 36.4042 75.2869 36.0628C76.0238 35.7772 76.7048 35.3926 77.3303 34.9093C77.9559 34.426 78.4998 33.8643 78.9629 33.2233C79.2841 32.7372 79.5438 32.2201 79.742 31.672C79.9407 31.1244 80.0726 30.5608 80.1375 29.9817V7.49519C80.0769 7.2646 80.0083 7.03634 79.9317 6.80997C79.8557 6.58407 79.7716 6.36098 79.6796 6.14072C79.588 5.92045 79.4884 5.70394 79.3818 5.49072C79.2747 5.27702 79.1606 5.06803 79.0394 4.86232C78.9182 4.65708 78.79 4.45607 78.6548 4.25928C78.5195 4.06297 78.3777 3.87135 78.2293 3.68443C78.0808 3.49751 77.9259 3.31622 77.7648 3.1401C77.6037 2.96445 77.437 2.79397 77.2641 2.62959C77.0913 2.46521 76.9133 2.30647 76.7292 2.15477C76.5456 2.0026 76.3568 1.85701 76.1633 1.71752C75.9693 1.5785 75.7706 1.44653 75.5677 1.32113C75.3648 1.19574 75.1577 1.07738 74.9469 0.966546C74.7355 0.855708 74.5209 0.751915 74.3025 0.655636C74.0841 0.559827 73.8629 0.471062 73.6384 0.390282C73.4139 0.309501 73.1871 0.236705 72.9579 0.171423C72.7282 0.106142 72.4967 0.0493136 72.2633 0ZM47.2927 53.4033C47.3002 53.5109 47.3049 53.618 47.3068 53.726C47.3087 53.8335 47.3078 53.9411 47.3035 54.0486C47.2998 54.1562 47.2927 54.2633 47.2833 54.3708C47.2735 54.4779 47.2613 54.5845 47.2458 54.6911C47.2303 54.7977 47.2124 54.9039 47.1913 55.0091C47.1702 55.1147 47.1462 55.2195 47.1199 55.3237C47.0931 55.428 47.0635 55.5318 47.0316 55.6342C46.9992 55.737 46.9644 55.8389 46.9269 55.9399C46.8893 56.0404 46.8489 56.1405 46.8062 56.2391C46.763 56.3377 46.7174 56.4349 46.6695 56.5312C46.6211 56.6275 46.5704 56.7224 46.5173 56.8158C46.4643 56.9098 46.4084 57.0018 46.3506 57.092C46.2924 57.1826 46.2318 57.2719 46.1689 57.3587C46.1059 57.4461 46.0406 57.532 45.9735 57.6156C45.9058 57.6997 45.8363 57.7814 45.7645 57.8617C45.6926 57.9416 45.6189 58.02 45.5428 58.0961C45.4667 58.1722 45.3888 58.2464 45.3089 58.3182C45.2286 58.3901 45.1469 58.4601 45.0633 58.5277C44.9797 58.5953 44.8942 58.6606 44.8069 58.7236C44.7195 58.787 44.6307 58.8475 44.5406 58.9058C44.4499 58.964 44.3579 59.0199 44.2644 59.0734C44.1714 59.1265 44.0765 59.1772 43.9803 59.2256C43.884 59.274 43.7868 59.32 43.6881 59.3628C43.5895 59.406 43.49 59.4464 43.3894 59.4844C43.2885 59.522 43.187 59.5572 43.0842 59.5896C42.9818 59.622 42.878 59.6516 42.7742 59.6784C42.6699 59.7051 42.5647 59.7291 42.4595 59.7502C42.3539 59.7713 42.2482 59.7897 42.1416 59.8052C42.035 59.8211 41.9284 59.8338 41.8213 59.8432C41.7142 59.8531 41.6066 59.8601 41.4991 59.8643C41.3915 59.8686 41.284 59.8695 41.1764 59.8681C41.0689 59.8662 40.9613 59.862 40.8543 59.8545C36.6015 59.8869 32.3601 59.909 28.1079 59.8324C27.8002 59.8164 27.4945 59.8343 27.1911 59.8869C26.8877 59.939 26.5937 60.0245 26.3091 60.1433C26.025 60.2621 25.7573 60.4105 25.5065 60.5895C25.2557 60.7684 25.0279 60.9732 24.8231 61.2033C23.2573 62.8133 21.5172 64.2603 20.0815 65.99C18.4598 67.9396 16.676 69.7271 14.7307 71.353C14.7631 70.5048 14.8829 66.5015 14.9374 62.1281C14.9548 61.9646 14.9557 61.8007 14.9402 61.6373C14.9242 61.4734 14.8918 61.3128 14.8435 61.1559C14.7946 60.9986 14.7307 60.8478 14.6514 60.7041C14.572 60.5599 14.4785 60.4256 14.3719 60.3002C14.2554 60.2105 14.1319 60.1325 14.0004 60.0668C13.8685 60.0015 13.7318 59.9493 13.5899 59.9113C13.4481 59.8728 13.3039 59.8488 13.1569 59.8395C13.0104 59.8301 12.8643 59.8348 12.7187 59.8545C11.5986 59.8977 10.4672 59.8761 9.3471 59.8545C9.2419 59.8587 9.13623 59.8601 9.03056 59.8592C8.92488 59.8578 8.81921 59.854 8.71401 59.8474C8.60881 59.8404 8.50361 59.831 8.3984 59.8188C8.29367 59.8066 8.18941 59.792 8.08514 59.7742C7.98088 59.7568 7.87756 59.7366 7.77423 59.7136C7.67138 59.6906 7.569 59.6647 7.46708 59.6366C7.36517 59.6084 7.26466 59.5774 7.16415 59.5436C7.06412 59.5102 6.96502 59.4741 6.86686 59.4351C6.76871 59.3966 6.67149 59.3552 6.57521 59.3116C6.47893 59.2679 6.38406 59.2214 6.2906 59.173C6.19667 59.1242 6.10462 59.073 6.0135 59.0194C5.92239 58.9659 5.83269 58.91 5.74486 58.8518C5.65657 58.7935 5.57015 58.7334 5.48514 58.6705C5.40014 58.608 5.31654 58.5432 5.23529 58.476C5.15357 58.4089 5.07373 58.3398 4.99577 58.2689C4.9178 58.1975 4.84125 58.1243 4.76704 58.0491C4.69284 57.974 4.62098 57.897 4.55053 57.8181C4.48056 57.7392 4.41246 57.6589 4.34623 57.5762C4.28001 57.494 4.21614 57.4099 4.15462 57.324C4.09309 57.238 4.03392 57.1507 3.97662 57.0619C3.91932 56.9732 3.86484 56.883 3.81224 56.7914C3.76011 56.6993 3.70985 56.6064 3.66242 56.5124C3.61452 56.418 3.56943 56.3227 3.52716 56.2259C3.48442 56.1292 3.4445 56.0315 3.40693 55.9329C3.36936 55.8342 3.33413 55.7342 3.30173 55.6337C3.26979 55.5332 3.23973 55.4322 3.21296 55.3298C3.18572 55.2279 3.1613 55.1251 3.1397 55.0217C3.11762 54.9184 3.09884 54.8146 3.0824 54.7104C3.06596 54.6056 3.05234 54.5009 3.04154 54.3962C3.03074 54.291 3.02275 54.1858 3.01712 54.0801C3.01148 53.9749 3.00913 53.8692 3.00913 53.7635C3.00913 53.6579 3.01195 53.5522 3.01759 53.447C2.98471 47.3983 2.98471 41.3426 3.01759 35.2794C3.01101 35.1737 3.00772 35.0681 3.00678 34.9624C3.00631 34.8567 3.00819 34.7506 3.01289 34.6449C3.01759 34.5392 3.0251 34.434 3.03543 34.3284C3.04577 34.2232 3.05845 34.1184 3.07394 34.0137C3.08991 33.909 3.10823 33.8047 3.12936 33.7014C3.1505 33.5976 3.17398 33.4943 3.20075 33.3919C3.22705 33.2895 3.25617 33.188 3.28811 33.0871C3.31957 32.9861 3.35386 32.8861 3.39096 32.787C3.42759 32.6879 3.46751 32.5897 3.50931 32.4925C3.55158 32.3953 3.59573 32.2995 3.64316 32.2046C3.69013 32.1097 3.73944 32.0163 3.7911 31.9242C3.84324 31.8322 3.89725 31.741 3.95407 31.6518C4.01043 31.5626 4.06961 31.4747 4.13066 31.3883C4.19172 31.3019 4.25512 31.2174 4.32087 31.1342C4.38616 31.0511 4.45426 30.9699 4.52376 30.8905C4.59374 30.8107 4.6656 30.7332 4.73933 30.6576C4.81307 30.5819 4.88868 30.5077 4.96665 30.4359C5.04414 30.3645 5.12351 30.2945 5.20523 30.2269C5.28648 30.1592 5.36914 30.0935 5.45415 30.0301C5.53868 29.9667 5.6251 29.9056 5.71293 29.8469C5.80075 29.7878 5.88999 29.7314 5.9811 29.6769C6.07174 29.6229 6.16379 29.5712 6.25725 29.5215C6.35118 29.4721 6.44558 29.4252 6.54186 29.3806C6.63767 29.3359 6.73489 29.2941 6.83305 29.2547C6.93121 29.2152 7.0303 29.1781 7.13034 29.1439C7.23038 29.1096 7.33135 29.0781 7.4328 29.049C7.53471 29.0199 7.63709 28.9936 7.73995 28.9696C7.84327 28.9461 7.9466 28.925 8.05086 28.9067C8.15512 28.8884 8.25986 28.8724 8.36459 28.8597C8.46979 28.8466 8.57499 28.8367 8.68019 28.8292C8.78587 28.8217 8.89154 28.817 8.99721 28.8151C9.10288 28.8132 9.20902 28.8142 9.3147 28.8174C16.1773 28.785 23.0398 28.7742 29.9024 28.785C29.9287 29.1636 29.9794 29.5388 30.0541 29.9108C30.1283 30.2828 30.2265 30.6486 30.3476 31.0084C30.4688 31.3677 30.6125 31.718 30.7788 32.0595C30.9446 32.4004 31.132 32.7297 31.34 33.0471C31.5481 33.3646 31.7754 33.6671 32.0224 33.9555C32.269 34.2434 32.5334 34.5148 32.8147 34.7694C33.0965 35.0234 33.3929 35.2592 33.7043 35.4753C34.0161 35.6918 34.3402 35.8876 34.6769 36.0628C35.3884 36.415 36.131 36.6799 36.9045 36.8584C37.678 37.0364 38.4618 37.1233 39.2556 37.1181C40.4734 37.1289 41.6916 37.1397 42.9099 37.1397C44.3673 37.1613 45.8354 37.1613 47.2927 37.1397C47.3251 42.5572 47.3251 47.9784 47.2927 53.4033ZM77.1246 27.7081C77.1303 27.8133 77.1331 27.919 77.1326 28.0247C77.1326 28.1303 77.1298 28.236 77.1242 28.3417C77.119 28.4474 77.1105 28.5526 77.0993 28.6578C77.0885 28.763 77.0749 28.8677 77.0584 28.972C77.042 29.0767 77.0227 29.1805 77.0006 29.2838C76.979 29.3871 76.9541 29.49 76.9269 29.5919C76.8997 29.6943 76.8701 29.7957 76.8377 29.8962C76.8048 29.9967 76.7701 30.0963 76.7325 30.1954C76.6944 30.294 76.6545 30.3917 76.6118 30.4885C76.569 30.5852 76.5235 30.6806 76.476 30.775C76.4281 30.8694 76.3779 30.9624 76.3258 31.0539C76.2731 31.1455 76.2182 31.2357 76.1609 31.3249C76.1036 31.4137 76.044 31.501 75.9824 31.5865C75.9204 31.6725 75.8566 31.7565 75.7904 31.8387C75.7241 31.9214 75.656 32.0022 75.5856 32.0811C75.5156 32.16 75.4433 32.237 75.3686 32.3121C75.2944 32.3873 75.2183 32.4601 75.1399 32.5315C75.0619 32.6024 74.9821 32.6714 74.9004 32.7386C74.8186 32.8057 74.735 32.8706 74.65 32.933C74.565 32.996 74.4781 33.0561 74.3898 33.1143C74.3016 33.1725 74.2118 33.2284 74.1207 33.282C74.0296 33.3355 73.9371 33.3862 73.8436 33.4351C73.7497 33.4839 73.6548 33.5299 73.5586 33.5736C73.4623 33.6173 73.3651 33.6586 73.2669 33.6976C73.1683 33.7361 73.0692 33.7723 72.9687 33.8056C72.8686 33.8394 72.7677 33.87 72.6657 33.8986C72.5638 33.9268 72.4614 33.9522 72.3581 33.9752C72.2553 33.9982 72.1515 34.0184 72.0472 34.0358C71.9429 34.0536 71.8382 34.0682 71.7335 34.0804C71.6283 34.0926 71.5231 34.102 71.4179 34.1086C71.3122 34.1151 71.2065 34.1189 71.1009 34.1203C70.9957 34.1212 70.89 34.1198 70.7843 34.1156C69.6642 34.1372 68.5328 34.1588 67.4127 34.1156C67.268 34.0945 67.1224 34.0884 66.9764 34.0973C66.8303 34.1062 66.6866 34.1302 66.5452 34.1682C66.4043 34.2067 66.2681 34.2589 66.138 34.3251C66.0075 34.3913 65.8849 34.4702 65.7703 34.5613C65.6628 34.6862 65.5693 34.8206 65.489 34.9643C65.4087 35.1085 65.3438 35.2587 65.2941 35.4161C65.2448 35.5729 65.2114 35.7336 65.1945 35.8975C65.1776 36.0614 65.1776 36.2253 65.194 36.3892C65.2485 40.7621 65.3791 44.7547 65.4007 45.6141C63.4582 43.9854 61.6745 42.1974 60.0499 40.2512C58.625 38.5214 56.8741 37.0744 55.3191 35.4645C55.1134 35.2339 54.8847 35.0286 54.6329 34.8497C54.3812 34.6703 54.113 34.5214 53.8275 34.4026C53.5424 34.2842 53.2475 34.1987 52.9431 34.1466C52.6383 34.0945 52.3321 34.0766 52.0235 34.0935C51.4473 34.1048 50.8705 34.1156 50.2943 34.1156C49.261 34.1264 48.2386 34.1372 47.2058 34.1372C44.5626 34.148 41.9199 34.1264 39.2772 34.1156C35.7318 34.0827 33.3609 32.0811 32.9256 28.785C32.8683 28.4135 32.8396 28.0402 32.8387 27.6644V25.7389C32.8171 20.3214 32.8063 14.904 32.8387 9.48605C32.8321 9.38038 32.8284 9.27471 32.8269 9.16904C32.826 9.06337 32.8279 8.95722 32.8321 8.85155C32.8368 8.74588 32.8438 8.64021 32.8542 8.53501C32.864 8.4298 32.8767 8.3246 32.8922 8.21987C32.9077 8.11514 32.926 8.01134 32.9472 7.90755C32.9683 7.80376 32.9918 7.70043 33.0186 7.59805C33.0449 7.49566 33.074 7.39375 33.1059 7.29324C33.1374 7.19227 33.1721 7.09223 33.2092 6.99314C33.2459 6.89404 33.2858 6.79588 33.3281 6.69866C33.3703 6.60145 33.4149 6.50564 33.4619 6.41124C33.5093 6.31637 33.5591 6.2229 33.6113 6.13085C33.6634 6.0388 33.7179 5.94816 33.7747 5.85892C33.832 5.76969 33.8912 5.68233 33.9527 5.59592C34.0142 5.50997 34.0781 5.42543 34.1439 5.34277C34.2101 5.26012 34.2782 5.17934 34.3482 5.09996C34.4186 5.02106 34.4909 4.94357 34.5651 4.86842C34.6393 4.79281 34.7154 4.71954 34.7938 4.64816C34.8718 4.57724 34.9517 4.50773 35.0338 4.44057C35.1156 4.37341 35.1992 4.3086 35.2842 4.24613C35.3692 4.1832 35.4561 4.12262 35.5444 4.06438C35.6331 4.00661 35.7228 3.95072 35.8139 3.89718C35.9055 3.84364 35.998 3.79292 36.092 3.74408C36.1859 3.6957 36.2812 3.64967 36.378 3.606C36.4743 3.56232 36.5715 3.52146 36.6701 3.48295C36.7687 3.44444 36.8683 3.40874 36.9688 3.37587C37.0693 3.34252 37.1708 3.31199 37.2727 3.28428C37.3746 3.25611 37.4774 3.23121 37.5808 3.20867C37.6841 3.18613 37.7884 3.1664 37.8926 3.14949C37.9969 3.13259 38.1016 3.1185 38.2068 3.10676C38.312 3.09548 38.4177 3.08656 38.5234 3.08092C38.629 3.07482 38.7347 3.07153 38.8404 3.07153C38.9461 3.07106 39.0517 3.07341 39.1574 3.07858C49.7072 3.0241 60.2636 3.0241 70.8275 3.07858C70.9332 3.07529 71.0393 3.07435 71.145 3.07623C71.2507 3.07811 71.3564 3.0828 71.462 3.09032C71.5672 3.09783 71.6724 3.1077 71.7776 3.12085C71.8824 3.13353 71.9871 3.14949 72.0914 3.16781C72.1956 3.18613 72.2989 3.20726 72.4023 3.23074C72.5051 3.2547 72.6075 3.281 72.7094 3.31012C72.8113 3.33923 72.9118 3.3707 73.0119 3.40499C73.1119 3.43927 73.2115 3.47637 73.3092 3.51582C73.4073 3.55527 73.5045 3.59707 73.6004 3.64169C73.6966 3.68631 73.791 3.73327 73.885 3.78259C73.9784 3.83237 74.0705 3.88403 74.1611 3.93804C74.2522 3.99252 74.3415 4.04888 74.4293 4.10806C74.5171 4.16676 74.6035 4.22782 74.6881 4.29122C74.7731 4.35462 74.8557 4.42038 74.9375 4.48801C75.0187 4.55564 75.0981 4.62514 75.1756 4.697C75.2535 4.76886 75.3291 4.84259 75.4029 4.91868C75.4766 4.99429 75.5485 5.07178 75.6185 5.15163C75.688 5.231 75.7561 5.31225 75.8213 5.39538C75.8871 5.4785 75.9505 5.56304 76.0116 5.64946C76.0726 5.7354 76.1318 5.82323 76.1881 5.91293C76.245 6.00217 76.299 6.09281 76.3511 6.18533C76.4028 6.27738 76.4521 6.37085 76.4995 6.46572C76.5465 6.56059 76.5911 6.65639 76.6329 6.75361C76.6752 6.85083 76.7146 6.94852 76.7513 7.04809C76.7884 7.14718 76.8226 7.24722 76.8546 7.34819C76.886 7.4487 76.9152 7.55061 76.9415 7.653C76.9682 7.75538 76.9917 7.85871 77.0129 7.96203C77.034 8.06582 77.0523 8.17009 77.0683 8.27482C77.0838 8.37955 77.0969 8.48428 77.1068 8.58949C77.1171 8.69516 77.1246 8.80036 77.1293 8.90603C77.134 9.0117 77.1359 9.11785 77.1354 9.22352C77.1345 9.32919 77.1312 9.43486 77.1246 9.54053C77.1575 15.6 77.1575 21.6557 77.1246 27.7081ZM70.6199 14.6762H39.8004C39.6933 14.6762 39.5871 14.6659 39.4819 14.6452C39.3772 14.6241 39.2748 14.5931 39.1762 14.5522C39.0771 14.5113 38.9832 14.4611 38.8939 14.4014C38.8052 14.3418 38.7225 14.2742 38.6469 14.1986C38.5708 14.1225 38.5036 14.0403 38.444 13.951C38.3843 13.8623 38.3341 13.7679 38.2932 13.6693C38.2524 13.5702 38.2214 13.4682 38.2002 13.363C38.1796 13.2578 38.1688 13.1517 38.1688 13.0446C38.1688 12.9375 38.1796 12.8314 38.2002 12.7262C38.2214 12.621 38.2524 12.5191 38.2932 12.42C38.3341 12.3214 38.3843 12.227 38.444 12.1382C38.5036 12.049 38.5713 11.9663 38.6469 11.8907C38.7225 11.8151 38.8052 11.7474 38.8939 11.6878C38.9832 11.6281 39.0771 11.5779 39.1762 11.537C39.2748 11.4962 39.3772 11.4652 39.4819 11.444C39.5871 11.4234 39.6933 11.4126 39.8004 11.4126H70.6199C70.727 11.4126 70.8332 11.4234 70.9384 11.444C71.0431 11.4652 71.1455 11.4962 71.2441 11.537C71.3432 11.5779 71.4371 11.6281 71.5264 11.6878C71.6156 11.7474 71.6978 11.8151 71.7734 11.8907C71.8495 11.9663 71.9171 12.049 71.9763 12.1382C72.0359 12.227 72.0862 12.3214 72.1271 12.42C72.1684 12.5191 72.1989 12.621 72.22 12.7262C72.2407 12.8314 72.2515 12.9375 72.2515 13.0446C72.2515 13.1517 72.2407 13.2578 72.22 13.363C72.1989 13.4682 72.1684 13.5702 72.1271 13.6693C72.0862 13.7679 72.0359 13.8623 71.9763 13.951C71.9171 14.0403 71.8495 14.1225 71.7734 14.1986C71.6978 14.2742 71.6156 14.3418 71.5264 14.4014C71.4371 14.4611 71.3432 14.5113 71.2441 14.5522C71.1455 14.5931 71.0431 14.6241 70.9384 14.6452C70.8332 14.6659 70.727 14.6762 70.6199 14.6762ZM59.6127 23.3272H40.7444C40.6373 23.3272 40.5311 23.3169 40.4259 23.2957C40.3212 23.2751 40.2188 23.2441 40.1202 23.2027C40.0211 23.1619 39.9272 23.1116 39.8379 23.052C39.7492 22.9928 39.6665 22.9247 39.5909 22.8491C39.5153 22.7735 39.4476 22.6908 39.388 22.6021C39.3284 22.5128 39.2781 22.4189 39.2372 22.3198C39.1964 22.2207 39.1654 22.1188 39.1442 22.0136C39.1236 21.9084 39.1128 21.8022 39.1128 21.6952C39.1128 21.5881 39.1236 21.4819 39.1442 21.3767C39.1654 21.272 39.1964 21.1696 39.2372 21.071C39.2781 20.9719 39.3284 20.878 39.388 20.7887C39.4476 20.6995 39.5153 20.6173 39.5909 20.5417C39.6665 20.4656 39.7492 20.398 39.8379 20.3383C39.9272 20.2792 40.0211 20.2289 40.1202 20.1876C40.2188 20.1467 40.3212 20.1157 40.4259 20.0951C40.5311 20.0739 40.6373 20.0636 40.7444 20.0636H59.6127C59.7198 20.0636 59.8259 20.0739 59.9311 20.0951C60.0358 20.1157 60.1377 20.1467 60.2368 20.1876C60.3359 20.2289 60.4299 20.2792 60.5191 20.3383C60.6079 20.398 60.6905 20.4656 60.7661 20.5417C60.8418 20.6173 60.9094 20.6995 60.969 20.7887C61.0287 20.878 61.0789 20.9719 61.1198 21.071C61.1607 21.1696 61.1917 21.272 61.2128 21.3767C61.2334 21.4819 61.2438 21.5881 61.2443 21.6952C61.2438 21.8022 61.2334 21.9084 61.2128 22.0136C61.1917 22.1188 61.1607 22.2207 61.1198 22.3198C61.0789 22.4189 61.0287 22.5128 60.969 22.6021C60.9094 22.6908 60.8418 22.7735 60.7661 22.8491C60.6905 22.9247 60.6079 22.9928 60.5191 23.052C60.4299 23.1116 60.3359 23.1619 60.2368 23.2027C60.1377 23.2441 60.0358 23.2751 59.9311 23.2957C59.8259 23.3169 59.7198 23.3272 59.6127 23.3272ZM40.3353 50.2073H9.51571C9.40863 50.2073 9.30249 50.1965 9.19728 50.1759C9.09255 50.1547 8.99064 50.1242 8.89154 50.0829C8.79244 50.042 8.69851 49.9918 8.60928 49.9321C8.52051 49.8725 8.43785 49.8048 8.36224 49.7292C8.28663 49.6536 8.219 49.571 8.15935 49.4822C8.0997 49.393 8.04945 49.299 8.00859 49.1999C7.96773 49.1008 7.93673 48.9989 7.9156 48.8937C7.89493 48.7885 7.8846 48.6824 7.8846 48.5753C7.8846 48.4682 7.89493 48.3621 7.9156 48.2569C7.93673 48.1521 7.96773 48.0497 8.00859 47.9511C8.04945 47.852 8.0997 47.7581 8.15935 47.6689C8.219 47.5796 8.28663 47.4974 8.36224 47.4213C8.43785 47.3457 8.52051 47.2781 8.60928 47.2185C8.69851 47.1593 8.79244 47.109 8.89154 47.0677C8.99064 47.0268 9.09255 46.9958 9.19728 46.9752C9.30249 46.954 9.40863 46.9437 9.51571 46.9437H40.3353C40.4424 46.9437 40.5485 46.954 40.6537 46.9752C40.7589 46.9958 40.8608 47.0268 40.9599 47.0677C41.0586 47.109 41.1525 47.1593 41.2417 47.2185C41.331 47.2781 41.4131 47.3457 41.4888 47.4213C41.5648 47.4974 41.6325 47.5796 41.6916 47.6689C41.7513 47.7581 41.8015 47.852 41.8424 47.9511C41.8837 48.0497 41.9147 48.1521 41.9354 48.2569C41.9565 48.3621 41.9669 48.4682 41.9669 48.5753C41.9669 48.6824 41.9565 48.7885 41.9354 48.8937C41.9147 48.9989 41.8837 49.1008 41.8424 49.1999C41.8015 49.299 41.7513 49.393 41.6916 49.4822C41.6325 49.571 41.5648 49.6536 41.4888 49.7292C41.4131 49.8048 41.331 49.8725 41.2417 49.9321C41.1525 49.9918 41.0586 50.042 40.9599 50.0829C40.8608 50.1242 40.7589 50.1547 40.6537 50.1759C40.5485 50.1965 40.4424 50.2073 40.3353 50.2073ZM9.64721 38.1842H28.5155C28.6226 38.1842 28.7288 38.1945 28.834 38.2157C28.9392 38.2363 29.0411 38.2673 29.1402 38.3082C29.2388 38.3495 29.3327 38.3998 29.422 38.459C29.5112 38.5186 29.5934 38.5862 29.669 38.6618C29.7451 38.7379 29.8127 38.8201 29.8719 38.9094C29.9315 38.9986 29.9818 39.0925 30.0226 39.1916C30.064 39.2902 30.095 39.3926 30.1156 39.4974C30.1368 39.6026 30.1471 39.7087 30.1471 39.8158C30.1471 39.9229 30.1368 40.029 30.1156 40.1342C30.095 40.2394 30.064 40.3413 30.0226 40.4404C29.9818 40.5395 29.9315 40.6335 29.8719 40.7227C29.8127 40.8115 29.7451 40.8941 29.669 40.9697C29.5934 41.0453 29.5112 41.113 29.422 41.1726C29.3327 41.2323 29.2388 41.2825 29.1402 41.3234C29.0411 41.3647 28.9392 41.3952 28.834 41.4164C28.7288 41.437 28.6226 41.4478 28.5155 41.4478H9.64721C9.54013 41.4478 9.43399 41.437 9.32926 41.4164C9.22405 41.3952 9.12214 41.3647 9.02304 41.3234C8.92394 41.2825 8.83001 41.2323 8.74125 41.1726C8.65201 41.113 8.56936 41.0453 8.49374 40.9697C8.41813 40.8941 8.3505 40.8115 8.29085 40.7227C8.23121 40.6335 8.18095 40.5395 8.14009 40.4404C8.09923 40.3413 8.06824 40.2394 8.04757 40.1342C8.02644 40.029 8.0161 39.9229 8.0161 39.8158C8.0161 39.7087 8.02644 39.6026 8.04757 39.4974C8.06824 39.3926 8.09923 39.2902 8.14009 39.1916C8.18095 39.0925 8.23121 38.9986 8.29085 38.9094C8.3505 38.8201 8.41813 38.7379 8.49374 38.6618C8.56936 38.5862 8.65201 38.5186 8.74125 38.459C8.83001 38.3998 8.92394 38.3495 9.02304 38.3082C9.12214 38.2673 9.22405 38.2363 9.32926 38.2157C9.43399 38.1945 9.54013 38.1842 9.64721 38.1842Z" fill="#F27405"/>
</g>
</svg>
