<svg width="87" height="86" viewBox="0 0 87 86" fill="none" xmlns="http://www.w3.org/2000/svg">
<mask id="mask0_24_337" style="mask-type:luminance" maskUnits="userSpaceOnUse" x="0" y="7" width="79" height="79">
<path d="M0 7.45465H78.6053V86H0V7.45465Z" fill="white"/>
</mask>
<g mask="url(#mask0_24_337)">
<path d="M39.2843 86.0002C17.6216 86.0002 0 68.3887 0 46.739C0 25.0894 17.6216 7.47833 39.2843 7.47833C47.0067 7.47833 54.4928 9.73308 60.9396 13.9956C61.7963 14.5638 62.0356 15.7267 61.467 16.5868C60.8907 17.4503 59.7311 17.6787 58.8743 17.1139C53.045 13.2587 46.2693 11.2172 39.2843 11.2172C19.6869 11.2172 3.74108 27.1534 3.74108 46.739C3.74108 66.3246 19.6869 82.2609 39.2843 82.2609C58.8817 82.2609 74.8275 66.3246 74.8275 46.739C74.8275 39.7582 72.7881 32.9866 68.9272 27.1612C68.3586 26.3011 68.5945 25.1383 69.4546 24.5696C70.3114 24.0053 71.4715 24.2332 72.0474 25.0972C76.3164 31.5358 78.5686 39.0217 78.5686 46.739C78.5686 68.3887 60.9469 86.0002 39.2843 86.0002Z" fill="#F28705" fill-opacity="0.5"/>
</g>
<path d="M39.5 56C34.2598 56 30 51.7361 30 46.4998C30 41.2634 34.2598 37 39.5 37C44.7402 37 49 41.2634 49 46.4998C49 51.7361 44.7402 56 39.5 56ZM39.5 40.7997C36.3574 40.7997 33.8001 43.357 33.8001 46.4998C33.8001 49.6425 36.3574 52.1998 39.5 52.1998C42.6426 52.1998 45.1999 49.6425 45.1999 46.4998C45.1999 43.357 42.6426 40.7997 39.5 40.7997Z" fill="#F27405"/>
<mask id="mask1_24_337" style="mask-type:luminance" maskUnits="userSpaceOnUse" x="37" y="0" width="50" height="49">
<path d="M37.3956 0H86.0517V48.6396H37.3956V0Z" fill="white"/>
</mask>
<g mask="url(#mask1_24_337)">
<path d="M39.2845 48.6087C38.8055 48.6087 38.3265 48.4254 37.96 48.0625C37.2305 47.3334 37.2305 46.1481 37.96 45.419L67.345 16.0521V9.34755C67.345 8.85025 67.5432 8.37544 67.8911 8.02385L75.3737 0.545692C75.9124 0.0112233 76.7168 -0.153567 77.4131 0.141784C78.1128 0.433713 78.5688 1.1139 78.5688 1.86939V7.47813H84.1809C84.9368 7.47813 85.6213 7.93436 85.9095 8.63362C86.1977 9.33288 86.0367 10.1368 85.5054 10.6713L78.0227 18.1494C77.6709 18.501 77.1958 18.6956 76.6982 18.6956H69.9901L40.6051 48.0625C40.2425 48.4254 39.7635 48.6087 39.2845 48.6087ZM71.0861 14.9563H75.9237L79.6653 11.217H76.6982C75.6658 11.217 74.8277 10.3798 74.8277 9.34755V6.3823L71.0861 10.1216V14.9563Z" fill="#F27405"/>
</g>
<path d="M39.5 71C25.9913 71 15 60.0092 15 46.5C15 32.9913 25.9913 22 39.5 22C43.156 22 46.7032 22.8104 50.0427 24.4084C50.9813 24.861 51.3766 25.9843 50.9285 26.9229C50.48 27.8614 49.3526 28.2572 48.4141 27.8087C45.5872 26.4556 42.5872 25.7694 39.5 25.7694C28.0715 25.7694 18.7694 35.068 18.7694 46.5C18.7694 57.932 28.0715 67.2311 39.5 67.2311C50.9285 67.2311 60.2306 57.932 60.2306 46.5C60.2306 43.4133 59.541 40.4128 58.1879 37.5819C57.7393 36.6434 58.1351 35.5205 59.0737 35.068C60.0009 34.6155 61.1356 35.0079 61.5876 35.9538C63.1896 39.2973 64 42.844 64 46.5C64 60.0092 53.0087 71 39.5 71Z" fill="#F28705" fill-opacity="0.5"/>
</svg>
