<svg xmlns="http://www.w3.org/2000/svg" xmlns:xlink="http://www.w3.org/1999/xlink" width="1920" zoomAndPan="magnify" viewBox="0 0 1440 809.999993" height="1080" preserveAspectRatio="xMidYMid meet" version="1.0"><defs><clipPath id="0e22cb9c6f"><path d="M 284 81 L 522 81 L 522 145 L 284 145 Z M 284 81 " clip-rule="nonzero"/></clipPath><clipPath id="3d6aa1a772"><path d="M 1081 81 L 1269 81 L 1269 145 L 1081 145 Z M 1081 81 " clip-rule="nonzero"/></clipPath><clipPath id="f4cfd39914"><path d="M 1228 83 L 1273.34375 83 L 1273.34375 84 L 1228 84 Z M 1228 83 " clip-rule="nonzero"/></clipPath><clipPath id="f376e6111e"><path d="M 1167 81 L 1273.34375 81 L 1273.34375 145 L 1167 145 Z M 1167 81 " clip-rule="nonzero"/></clipPath><clipPath id="00711a4b89"><path d="M 940 81 L 1160 81 L 1160 145 L 940 145 Z M 940 81 " clip-rule="nonzero"/></clipPath><clipPath id="bddf26ef6f"><path d="M 436 81 L 1007 81 L 1007 145 L 436 145 Z M 436 81 " clip-rule="nonzero"/></clipPath><clipPath id="9a59587f27"><path d="M 166.34375 83 L 224 83 L 224 84 L 166.34375 84 Z M 166.34375 83 " clip-rule="nonzero"/></clipPath><clipPath id="a13aadfd71"><path d="M 166.34375 81 L 285 81 L 285 145 L 166.34375 145 Z M 166.34375 81 " clip-rule="nonzero"/></clipPath><clipPath id="fda882193e"><path d="M 172 81 L 370 81 L 370 145 L 172 145 Z M 172 81 " clip-rule="nonzero"/></clipPath><clipPath id="83b5b2ec34"><path d="M 1009 587 L 1154 587 L 1154 705 L 1009 705 Z M 1009 587 " clip-rule="nonzero"/></clipPath><clipPath id="9e35b59b38"><path d="M 1149 670 L 1154 670 L 1154 705 L 1149 705 Z M 1149 670 " clip-rule="nonzero"/></clipPath><clipPath id="a6f8825e63"><path d="M 1149 587 L 1273.34375 587 L 1273.34375 705 L 1149 705 Z M 1149 587 " clip-rule="nonzero"/></clipPath><clipPath id="57d73bd263"><path d="M 612 81 L 843 81 L 843 466 L 612 466 Z M 612 81 " clip-rule="nonzero"/></clipPath><clipPath id="b2e63cd5b3"><path d="M 814 81 L 1016 81 L 1016 464 L 814 464 Z M 814 81 " clip-rule="nonzero"/></clipPath><clipPath id="88220e1e78"><path d="M 166.34375 81 L 425 81 L 425 422 L 166.34375 422 Z M 166.34375 81 " clip-rule="nonzero"/></clipPath></defs><path fill="#ffe60f" d="M 1241.429688 592.632812 C 1241.429688 593.96875 1241.394531 595.300781 1241.328125 596.636719 C 1241.265625 597.96875 1241.167969 599.300781 1241.035156 600.628906 C 1240.90625 601.957031 1240.742188 603.285156 1240.542969 604.605469 C 1240.347656 605.925781 1240.121094 607.242188 1239.859375 608.550781 C 1239.601562 609.859375 1239.308594 611.164062 1238.984375 612.457031 C 1238.660156 613.753906 1238.300781 615.039062 1237.914062 616.316406 C 1237.527344 617.597656 1237.109375 618.863281 1236.65625 620.121094 C 1236.207031 621.378906 1235.726562 622.625 1235.21875 623.855469 C 1234.707031 625.089844 1234.164062 626.3125 1233.59375 627.519531 C 1233.023438 628.726562 1232.421875 629.917969 1231.792969 631.097656 C 1231.164062 632.273438 1230.503906 633.433594 1229.820312 634.582031 C 1229.132812 635.726562 1228.417969 636.855469 1227.675781 637.964844 C 1226.933594 639.074219 1226.164062 640.164062 1225.371094 641.238281 C 1224.574219 642.3125 1223.753906 643.363281 1222.90625 644.394531 C 1222.058594 645.429688 1221.1875 646.4375 1220.289062 647.429688 C 1219.394531 648.417969 1218.472656 649.382812 1217.527344 650.328125 C 1216.585938 651.273438 1215.617188 652.195312 1214.628906 653.089844 C 1213.640625 653.988281 1212.628906 654.859375 1211.597656 655.707031 C 1210.5625 656.554688 1209.511719 657.375 1208.4375 658.171875 C 1207.367188 658.964844 1206.273438 659.734375 1205.164062 660.476562 C 1204.054688 661.21875 1202.925781 661.933594 1201.78125 662.617188 C 1200.636719 663.304688 1199.472656 663.964844 1198.296875 664.59375 C 1197.117188 665.222656 1195.925781 665.824219 1194.71875 666.394531 C 1193.511719 666.964844 1192.292969 667.503906 1191.058594 668.015625 C 1189.824219 668.527344 1188.578125 669.007812 1187.320312 669.457031 C 1186.0625 669.90625 1184.796875 670.328125 1183.519531 670.714844 C 1182.238281 671.101562 1180.953125 671.457031 1179.660156 671.78125 C 1178.363281 672.105469 1177.058594 672.398438 1175.75 672.660156 C 1174.441406 672.921875 1173.125 673.148438 1171.804688 673.34375 C 1170.484375 673.539062 1169.160156 673.703125 1167.828125 673.835938 C 1166.5 673.964844 1165.167969 674.0625 1163.835938 674.128906 C 1162.503906 674.195312 1161.167969 674.226562 1159.832031 674.226562 C 1158.496094 674.226562 1157.164062 674.195312 1155.828125 674.128906 C 1154.496094 674.0625 1153.164062 673.964844 1151.835938 673.835938 C 1150.503906 673.703125 1149.179688 673.539062 1147.859375 673.34375 C 1146.539062 673.148438 1145.222656 672.921875 1143.914062 672.660156 C 1142.605469 672.398438 1141.300781 672.105469 1140.007812 671.78125 C 1138.710938 671.457031 1137.425781 671.101562 1136.144531 670.714844 C 1134.867188 670.328125 1133.601562 669.90625 1132.34375 669.457031 C 1131.085938 669.007812 1129.839844 668.527344 1128.605469 668.015625 C 1127.375 667.503906 1126.152344 666.964844 1124.945312 666.394531 C 1123.738281 665.824219 1122.546875 665.222656 1121.367188 664.59375 C 1120.191406 663.964844 1119.027344 663.304688 1117.882812 662.617188 C 1116.738281 661.933594 1115.609375 661.21875 1114.5 660.476562 C 1113.390625 659.734375 1112.296875 658.964844 1111.226562 658.171875 C 1110.152344 657.375 1109.101562 656.554688 1108.070312 655.707031 C 1107.035156 654.859375 1106.023438 653.988281 1105.035156 653.089844 C 1104.046875 652.195312 1103.078125 651.273438 1102.136719 650.328125 C 1101.191406 649.382812 1100.269531 648.417969 1099.375 647.429688 C 1098.476562 646.4375 1097.605469 645.429688 1096.757812 644.394531 C 1095.910156 643.363281 1095.089844 642.3125 1094.292969 641.238281 C 1093.5 640.164062 1092.730469 639.074219 1091.988281 637.964844 C 1091.246094 636.855469 1090.53125 635.726562 1089.84375 634.582031 C 1089.160156 633.433594 1088.5 632.273438 1087.871094 631.097656 C 1087.242188 629.917969 1086.640625 628.726562 1086.070312 627.519531 C 1085.5 626.3125 1084.957031 625.089844 1084.449219 623.855469 C 1083.9375 622.625 1083.457031 621.378906 1083.007812 620.121094 C 1082.554688 618.863281 1082.136719 617.597656 1081.75 616.316406 C 1081.363281 615.039062 1081.007812 613.753906 1080.683594 612.457031 C 1080.355469 611.164062 1080.066406 609.859375 1079.804688 608.550781 C 1079.542969 607.242188 1079.316406 605.925781 1079.121094 604.605469 C 1078.921875 603.285156 1078.761719 601.957031 1078.628906 600.628906 C 1078.5 599.300781 1078.398438 597.96875 1078.335938 596.636719 C 1078.269531 595.300781 1078.238281 593.96875 1078.238281 592.632812 C 1078.238281 591.296875 1078.269531 589.960938 1078.335938 588.628906 C 1078.398438 587.292969 1078.5 585.964844 1078.628906 584.632812 C 1078.761719 583.304688 1078.921875 581.980469 1079.121094 580.660156 C 1079.316406 579.339844 1079.542969 578.023438 1079.804688 576.714844 C 1080.066406 575.402344 1080.355469 574.101562 1080.683594 572.804688 C 1081.007812 571.511719 1081.363281 570.222656 1081.75 568.945312 C 1082.136719 567.667969 1082.554688 566.402344 1083.007812 565.144531 C 1083.457031 563.886719 1083.9375 562.640625 1084.449219 561.40625 C 1084.957031 560.171875 1085.5 558.953125 1086.070312 557.746094 C 1086.640625 556.539062 1087.242188 555.34375 1087.871094 554.167969 C 1088.5 552.988281 1089.160156 551.828125 1089.84375 550.683594 C 1090.53125 549.539062 1091.246094 548.410156 1091.988281 547.300781 C 1092.730469 546.1875 1093.5 545.097656 1094.292969 544.023438 C 1095.089844 542.953125 1095.910156 541.898438 1096.757812 540.867188 C 1097.605469 539.835938 1098.476562 538.824219 1099.375 537.835938 C 1100.269531 536.847656 1101.191406 535.878906 1102.136719 534.933594 C 1103.078125 533.992188 1104.046875 533.070312 1105.035156 532.171875 C 1106.023438 531.277344 1107.035156 530.40625 1108.070312 529.558594 C 1109.101562 528.710938 1110.152344 527.890625 1111.226562 527.09375 C 1112.296875 526.296875 1113.390625 525.53125 1114.5 524.789062 C 1115.609375 524.046875 1116.738281 523.332031 1117.882812 522.644531 C 1119.027344 521.957031 1120.191406 521.300781 1121.367188 520.671875 C 1122.546875 520.042969 1123.738281 519.441406 1124.945312 518.871094 C 1126.152344 518.300781 1127.375 517.757812 1128.605469 517.246094 C 1129.839844 516.734375 1131.085938 516.253906 1132.34375 515.804688 C 1133.601562 515.355469 1134.867188 514.9375 1136.144531 514.550781 C 1137.425781 514.160156 1138.710938 513.804688 1140.007812 513.480469 C 1141.300781 513.15625 1142.605469 512.863281 1143.914062 512.605469 C 1145.222656 512.34375 1146.539062 512.117188 1147.859375 511.917969 C 1149.179688 511.722656 1150.503906 511.558594 1151.835938 511.429688 C 1153.164062 511.296875 1154.496094 511.199219 1155.828125 511.132812 C 1157.164062 511.070312 1158.496094 511.035156 1159.832031 511.035156 C 1161.167969 511.035156 1162.503906 511.070312 1163.835938 511.132812 C 1165.167969 511.199219 1166.5 511.296875 1167.828125 511.429688 C 1169.160156 511.558594 1170.484375 511.722656 1171.804688 511.917969 C 1173.125 512.117188 1174.441406 512.34375 1175.75 512.605469 C 1177.058594 512.863281 1178.363281 513.15625 1179.660156 513.480469 C 1180.953125 513.804688 1182.242188 514.160156 1183.519531 514.550781 C 1184.796875 514.9375 1186.0625 515.355469 1187.320312 515.804688 C 1188.578125 516.253906 1189.824219 516.734375 1191.058594 517.246094 C 1192.292969 517.757812 1193.511719 518.300781 1194.71875 518.871094 C 1195.925781 519.441406 1197.117188 520.042969 1198.296875 520.671875 C 1199.472656 521.300781 1200.636719 521.957031 1201.78125 522.644531 C 1202.925781 523.332031 1204.054688 524.046875 1205.164062 524.789062 C 1206.273438 525.53125 1207.367188 526.296875 1208.4375 527.09375 C 1209.511719 527.890625 1210.5625 528.710938 1211.597656 529.558594 C 1212.628906 530.40625 1213.640625 531.277344 1214.628906 532.171875 C 1215.617188 533.070312 1216.585938 533.992188 1217.527344 534.933594 C 1218.472656 535.878906 1219.394531 536.847656 1220.289062 537.835938 C 1221.1875 538.824219 1222.058594 539.835938 1222.90625 540.867188 C 1223.753906 541.898438 1224.574219 542.953125 1225.371094 544.023438 C 1226.164062 545.097656 1226.933594 546.1875 1227.675781 547.300781 C 1228.417969 548.410156 1229.132812 549.539062 1229.820312 550.683594 C 1230.503906 551.828125 1231.164062 552.988281 1231.792969 554.167969 C 1232.421875 555.34375 1233.023438 556.539062 1233.59375 557.746094 C 1234.164062 558.953125 1234.707031 560.171875 1235.21875 561.40625 C 1235.726562 562.640625 1236.207031 563.886719 1236.65625 565.144531 C 1237.109375 566.402344 1237.527344 567.667969 1237.914062 568.945312 C 1238.300781 570.222656 1238.65625 571.511719 1238.984375 572.804688 C 1239.308594 574.101562 1239.601562 575.402344 1239.859375 576.714844 C 1240.121094 578.023438 1240.347656 579.339844 1240.542969 580.660156 C 1240.742188 581.980469 1240.902344 583.304688 1241.035156 584.632812 C 1241.167969 585.964844 1241.265625 587.292969 1241.328125 588.628906 C 1241.394531 589.960938 1241.429688 591.296875 1241.429688 592.632812 Z M 1241.429688 592.632812 " fill-opacity="1" fill-rule="nonzero"/><path fill="#f5f6fb" d="M 1120.164062 459.304688 L 1120.164062 416.503906 L 1136.871094 401.902344 L 1167.628906 401.902344 L 1183.613281 416.484375 L 1183.613281 459.304688 Z M 1120.164062 459.304688 " fill-opacity="1" fill-rule="nonzero"/><path fill="#0d0d0d" d="M 1166.789062 404.054688 L 1181.457031 417.429688 L 1181.457031 457.152344 L 1122.320312 457.152344 L 1122.320312 417.484375 L 1137.679688 404.054688 L 1166.789062 404.054688 M 1168.460938 399.746094 L 1136.050781 399.746094 L 1118.011719 415.535156 L 1118.011719 461.460938 L 1185.765625 461.460938 L 1185.765625 415.535156 Z M 1168.460938 399.746094 " fill-opacity="1" fill-rule="nonzero"/><path fill="#0d0d0d" d="M 1181.15625 462.699219 C 1180.53125 488.957031 1188.394531 512.769531 1205.121094 535.378906 C 1213.664062 546.910156 1219.542969 559.847656 1222.613281 573.828125 C 1222.730469 575.484375 1222.785156 577.15625 1222.785156 578.769531 C 1222.785156 597.671875 1215.449219 615.488281 1202.148438 628.90625 C 1188.847656 642.324219 1171.121094 649.8125 1152.238281 649.984375 L 1151.25 649.984375 C 1132.367188 649.8125 1114.640625 642.324219 1101.339844 628.90625 C 1088.027344 615.476562 1080.703125 597.671875 1080.703125 578.769531 C 1080.703125 577.144531 1080.757812 575.484375 1080.875 573.828125 C 1083.945312 559.847656 1089.824219 546.914062 1098.367188 535.378906 C 1115.09375 512.78125 1122.953125 488.957031 1122.328125 462.699219 L 1181.15625 462.699219 M 1185.660156 458.390625 L 1117.859375 458.390625 C 1119.636719 487.816406 1110.527344 511.734375 1094.929688 532.8125 C 1086.035156 544.824219 1079.789062 558.585938 1076.632812 573.191406 L 1076.632812 573.214844 C 1076.503906 575.054688 1076.425781 576.90625 1076.425781 578.769531 C 1076.425781 620.246094 1109.859375 653.914062 1151.238281 654.300781 C 1151.28125 654.300781 1151.324219 654.300781 1151.378906 654.300781 C 1151.507812 654.300781 1151.648438 654.300781 1151.777344 654.300781 C 1151.90625 654.300781 1152.046875 654.300781 1152.175781 654.300781 C 1152.21875 654.300781 1152.261719 654.300781 1152.316406 654.300781 C 1193.695312 653.914062 1227.125 620.246094 1227.125 578.769531 C 1227.125 576.898438 1227.050781 575.042969 1226.921875 573.214844 L 1226.921875 573.191406 C 1223.753906 558.585938 1217.507812 544.824219 1208.621094 532.8125 C 1192.984375 511.734375 1183.882812 487.816406 1185.660156 458.390625 Z M 1185.660156 458.390625 " fill-opacity="1" fill-rule="nonzero"/><path stroke-linecap="round" transform="matrix(1.077029, 0, 0, 1.077029, 59.399278, 6.469605)" fill="none" stroke-linejoin="miter" d="M 1032.149762 579.628205 C 1035.860054 577.720469 1039.338227 575.47906 1042.551639 572.929367 C 1053.240039 564.449734 1060.870983 552.680525 1063.649169 539.300984 C 1064.410813 535.641467 1064.809769 531.869517 1064.809769 528.010523 C 1064.809769 526.548892 1064.751739 525.109023 1064.639306 523.680034 L 1064.639306 523.658273 " stroke="#3b3b3b" stroke-width="4" stroke-opacity="1" stroke-miterlimit="10"/><path stroke-linecap="butt" transform="matrix(1.077029, 0, 0, 1.077029, 59.399278, 6.469605)" fill-opacity="1" fill="#f5f6fb" fill-rule="nonzero" stroke-linejoin="miter" d="M 1045.36972 388.800187 L 985.199867 379.79103 " stroke="#3b3b3b" stroke-width="4" stroke-opacity="1" stroke-miterlimit="10"/><path stroke-linecap="butt" transform="matrix(1.077029, 0, 0, 1.077029, 59.399278, 6.469605)" fill-opacity="1" fill="#f5f6fb" fill-rule="nonzero" stroke-linejoin="miter" d="M 1045.36972 397.798463 L 985.199867 388.789306 " stroke="#3b3b3b" stroke-width="4" stroke-opacity="1" stroke-miterlimit="10"/><path stroke-linecap="butt" transform="matrix(1.077029, 0, 0, 1.077029, 59.399278, 6.469605)" fill-opacity="1" fill="#f5f6fb" fill-rule="nonzero" stroke-linejoin="miter" d="M 1045.36972 406.789486 L 985.199867 397.780329 " stroke="#3b3b3b" stroke-width="4" stroke-opacity="1" stroke-miterlimit="10"/><path stroke-linecap="butt" transform="matrix(1.077029, 0, 0, 1.077029, 59.399278, 6.469605)" fill-opacity="1" fill="#f5f6fb" fill-rule="nonzero" stroke-linejoin="miter" d="M 1045.36972 415.791389 L 985.199867 406.778605 " stroke="#3b3b3b" stroke-width="4" stroke-opacity="1" stroke-miterlimit="10"/><path stroke-linecap="butt" transform="matrix(1.077029, 0, 0, 1.077029, 59.399278, 6.469605)" fill="none" stroke-linejoin="miter" d="M 998.009989 510.550747 L 1010.899902 419.599608 " stroke="#3b3b3b" stroke-width="4" stroke-opacity="1" stroke-miterlimit="10"/><path stroke-linecap="butt" transform="matrix(1.077029, 0, 0, 1.077029, 59.399278, 6.469605)" fill="none" stroke-linejoin="miter" d="M 1017.54071 419.599608 L 1030.441504 510.550747 C 1029.948249 508.400011 1032.200538 524.619395 1043.070282 523.600243 C 1045.07957 523.411645 1046.980053 522.381613 1047.941174 520.600817 C 1052.659739 511.820154 1024.841609 504.729613 1014.218492 514.199383 C 1003.13839 524.07899 1001.089206 541.709229 1014.138701 541.531512 C 1026.368523 541.361049 1022.360826 508.67928 998.318273 509.83988 " stroke="#3b3b3b" stroke-width="4" stroke-opacity="1" stroke-miterlimit="10"/><path stroke-linecap="butt" transform="matrix(1.077029, 0, 0, 1.077029, 59.399278, 6.469605)" fill="none" stroke-linejoin="miter" d="M 998.231228 509.731074 L 998.111541 510.550747 C 998.60117 508.400011 996.34888 524.619395 985.479136 523.600243 C 983.469848 523.411645 981.569365 522.381613 980.608244 520.600817 C 977.539907 514.89937 988.199293 509.90879 998.96023 509.698432 " stroke="#3b3b3b" stroke-width="4" stroke-opacity="1" stroke-miterlimit="10"/><path fill="#f5f6fb" d="M 904.757812 459.304688 L 904.757812 416.503906 L 921.464844 401.902344 L 952.222656 401.902344 L 968.207031 416.484375 L 968.207031 459.304688 Z M 904.757812 459.304688 " fill-opacity="1" fill-rule="nonzero"/><path fill="#0d0d0d" d="M 951.382812 404.054688 L 966.054688 417.429688 L 966.054688 457.152344 L 906.914062 457.152344 L 906.914062 417.484375 L 922.273438 404.054688 L 951.382812 404.054688 M 953.054688 399.746094 L 920.644531 399.746094 L 902.605469 415.535156 L 902.605469 461.460938 L 970.359375 461.460938 L 970.359375 415.535156 Z M 953.054688 399.746094 " fill-opacity="1" fill-rule="nonzero"/><path fill="#f5f6fb" d="M 935.90625 652.148438 C 895.746094 651.773438 863.144531 618.859375 863.144531 578.769531 C 863.144531 577.046875 863.207031 575.28125 863.324219 573.515625 C 866.460938 559.15625 872.480469 545.898438 881.226562 534.085938 C 898.125 511.261719 905.816406 487.179688 904.695312 460.535156 L 967.980469 460.535156 C 966.859375 487.167969 974.550781 511.25 991.449219 534.085938 C 1000.207031 545.910156 1006.226562 559.179688 1009.351562 573.515625 C 1009.480469 575.28125 1009.53125 577.046875 1009.53125 578.769531 C 1009.53125 618.859375 976.929688 651.773438 936.855469 652.148438 Z M 935.90625 652.148438 " fill-opacity="1" fill-rule="nonzero"/><path fill="#0d0d0d" d="M 965.75 462.699219 C 965.128906 488.957031 972.988281 512.769531 989.714844 535.378906 C 998.257812 546.910156 1004.136719 559.847656 1007.207031 573.828125 C 1007.324219 575.484375 1007.378906 577.15625 1007.378906 578.769531 C 1007.378906 597.671875 1000.042969 615.488281 986.742188 628.90625 C 973.441406 642.324219 955.714844 649.8125 936.832031 649.984375 L 935.84375 649.984375 C 916.960938 649.8125 899.234375 642.324219 885.933594 628.90625 C 872.621094 615.476562 865.296875 597.671875 865.296875 578.769531 C 865.296875 577.144531 865.351562 575.484375 865.46875 573.828125 C 868.539062 559.847656 874.417969 546.914062 882.960938 535.378906 C 899.6875 512.78125 907.550781 488.957031 906.925781 462.699219 L 965.75 462.699219 M 970.253906 458.390625 L 902.453125 458.390625 C 904.230469 487.816406 895.121094 511.734375 879.523438 532.8125 C 870.628906 544.824219 864.382812 558.585938 861.226562 573.191406 L 861.226562 573.214844 C 861.097656 575.054688 861.019531 576.90625 861.019531 578.769531 C 861.019531 620.246094 894.453125 653.914062 935.832031 654.300781 C 935.875 654.300781 935.917969 654.300781 935.972656 654.300781 C 936.101562 654.300781 936.242188 654.300781 936.371094 654.300781 C 936.5 654.300781 936.640625 654.300781 936.769531 654.300781 C 936.8125 654.300781 936.855469 654.300781 936.910156 654.300781 C 978.289062 653.914062 1011.71875 620.246094 1011.71875 578.769531 C 1011.71875 576.898438 1011.644531 575.042969 1011.515625 573.214844 L 1011.515625 573.191406 C 1008.347656 558.585938 1002.101562 544.824219 993.214844 532.8125 C 977.578125 511.734375 968.476562 487.816406 970.253906 458.390625 Z M 970.253906 458.390625 " fill-opacity="1" fill-rule="nonzero"/><path stroke-linecap="round" transform="matrix(1.077029, 0, 0, 1.077029, 59.399278, 6.469605)" fill-opacity="1" fill="#f5f6fb" fill-rule="nonzero" stroke-linejoin="miter" d="M 832.149377 579.628205 C 835.85967 577.720469 839.34147 575.47906 842.551254 572.929367 C 853.239654 564.449734 860.870598 552.680525 863.648785 539.300984 C 864.410428 535.641467 864.809384 531.869517 864.809384 528.010523 C 864.809384 526.548892 864.751354 525.109023 864.638921 523.680034 L 864.638921 523.658273 " stroke="#3b3b3b" stroke-width="4" stroke-opacity="1" stroke-miterlimit="10"/><path stroke-linecap="butt" transform="matrix(1.077029, 0, 0, 1.077029, 59.399278, 6.469605)" fill-opacity="1" fill="#f5f6fb" fill-rule="nonzero" stroke-linejoin="miter" d="M 845.369335 388.800187 L 785.199482 379.79103 " stroke="#3b3b3b" stroke-width="4" stroke-opacity="1" stroke-miterlimit="10"/><path stroke-linecap="butt" transform="matrix(1.077029, 0, 0, 1.077029, 59.399278, 6.469605)" fill-opacity="1" fill="#f5f6fb" fill-rule="nonzero" stroke-linejoin="miter" d="M 845.369335 397.798463 L 785.199482 388.789306 " stroke="#3b3b3b" stroke-width="4" stroke-opacity="1" stroke-miterlimit="10"/><path stroke-linecap="butt" transform="matrix(1.077029, 0, 0, 1.077029, 59.399278, 6.469605)" fill-opacity="1" fill="#f5f6fb" fill-rule="nonzero" stroke-linejoin="miter" d="M 845.369335 406.789486 L 785.199482 397.780329 " stroke="#3b3b3b" stroke-width="4" stroke-opacity="1" stroke-miterlimit="10"/><path stroke-linecap="butt" transform="matrix(1.077029, 0, 0, 1.077029, 59.399278, 6.469605)" fill-opacity="1" fill="#f5f6fb" fill-rule="nonzero" stroke-linejoin="miter" d="M 845.369335 415.791389 L 785.199482 406.778605 " stroke="#3b3b3b" stroke-width="4" stroke-opacity="1" stroke-miterlimit="10"/><path stroke-linecap="butt" transform="matrix(1.077029, 0, 0, 1.077029, 59.399278, 6.469605)" fill-opacity="1" fill="#f5f6fb" fill-rule="nonzero" stroke-linejoin="miter" d="M 798.009604 510.550747 L 810.899517 419.599608 " stroke="#3b3b3b" stroke-width="4" stroke-opacity="1" stroke-miterlimit="10"/><path stroke-linecap="butt" transform="matrix(1.077029, 0, 0, 1.077029, 59.399278, 6.469605)" fill-opacity="1" fill="#f5f6fb" fill-rule="nonzero" stroke-linejoin="miter" d="M 817.540325 419.599608 L 830.441119 510.550747 C 829.951491 508.400011 832.200153 524.619395 843.069897 523.600243 C 845.079185 523.411645 846.979668 522.381613 847.94079 520.600817 C 852.659354 511.820154 824.841224 504.729613 814.221735 514.199383 C 803.141632 524.07899 801.088821 541.709229 814.138316 541.531512 C 826.368138 541.361049 822.360442 508.67928 798.321515 509.83988 " stroke="#3b3b3b" stroke-width="4" stroke-opacity="1" stroke-miterlimit="10"/><path stroke-linecap="butt" transform="matrix(1.077029, 0, 0, 1.077029, 59.399278, 6.469605)" fill-opacity="1" fill="#f5f6fb" fill-rule="nonzero" stroke-linejoin="miter" d="M 798.230843 509.731074 L 798.111157 510.550747 C 798.600785 508.400011 796.348495 524.619395 785.478752 523.600243 C 783.469463 523.411645 781.568981 522.381613 780.611486 520.600817 C 777.539523 514.89937 788.198908 509.90879 798.959845 509.698432 " stroke="#3b3b3b" stroke-width="4" stroke-opacity="1" stroke-miterlimit="10"/><path fill="#f5f6fb" d="M 689.355469 459.304688 L 689.355469 416.503906 L 706.058594 401.902344 L 736.816406 401.902344 L 752.800781 416.484375 L 752.800781 459.304688 Z M 689.355469 459.304688 " fill-opacity="1" fill-rule="nonzero"/><path fill="#0d0d0d" d="M 735.976562 404.054688 L 750.648438 417.429688 L 750.648438 457.152344 L 691.507812 457.152344 L 691.507812 417.484375 L 706.867188 404.054688 L 735.976562 404.054688 M 737.648438 399.746094 L 705.238281 399.746094 L 687.199219 415.535156 L 687.199219 461.460938 L 754.957031 461.460938 L 754.957031 415.535156 Z M 737.648438 399.746094 " fill-opacity="1" fill-rule="nonzero"/><path fill="#f5f6fb" d="M 720.5 652.148438 C 680.339844 651.773438 647.738281 618.859375 647.738281 578.769531 C 647.738281 577.046875 647.800781 575.28125 647.921875 573.515625 C 651.054688 559.15625 657.074219 545.898438 665.820312 534.085938 C 682.71875 511.261719 690.410156 487.179688 689.289062 460.535156 L 752.574219 460.535156 C 751.457031 487.167969 759.144531 511.25 776.042969 534.085938 C 784.800781 545.910156 790.820312 559.179688 793.945312 573.515625 C 794.074219 575.28125 794.128906 577.046875 794.128906 578.769531 C 794.128906 618.859375 761.523438 651.773438 721.449219 652.148438 Z M 720.5 652.148438 " fill-opacity="1" fill-rule="nonzero"/><path fill="#0d0d0d" d="M 750.347656 462.699219 C 749.722656 488.957031 757.582031 512.769531 774.308594 535.378906 C 782.851562 546.910156 788.730469 559.847656 791.800781 573.828125 C 791.917969 575.484375 791.972656 577.15625 791.972656 578.769531 C 791.972656 597.671875 784.636719 615.488281 771.335938 628.90625 C 758.035156 642.324219 740.308594 649.8125 721.425781 649.984375 L 720.4375 649.984375 C 701.554688 649.8125 683.828125 642.324219 670.527344 628.90625 C 657.214844 615.476562 649.890625 597.671875 649.890625 578.769531 C 649.890625 577.144531 649.945312 575.484375 650.0625 573.828125 C 653.132812 559.847656 659.011719 546.914062 667.554688 535.378906 C 684.28125 512.78125 692.144531 488.957031 691.519531 462.699219 L 750.347656 462.699219 M 754.847656 458.390625 L 687.046875 458.390625 C 688.824219 487.816406 679.714844 511.734375 664.117188 532.8125 C 655.222656 544.824219 648.976562 558.585938 645.820312 573.191406 L 645.820312 573.214844 C 645.691406 575.054688 645.617188 576.90625 645.617188 578.769531 C 645.617188 620.246094 679.046875 653.914062 720.425781 654.300781 C 720.46875 654.300781 720.511719 654.300781 720.566406 654.300781 C 720.695312 654.300781 720.835938 654.300781 720.964844 654.300781 C 721.09375 654.300781 721.234375 654.300781 721.363281 654.300781 C 721.40625 654.300781 721.449219 654.300781 721.503906 654.300781 C 762.882812 653.914062 796.3125 620.246094 796.3125 578.769531 C 796.3125 576.898438 796.238281 575.042969 796.109375 573.214844 L 796.109375 573.191406 C 792.941406 558.585938 786.695312 544.824219 777.808594 532.8125 C 762.171875 511.734375 753.070312 487.816406 754.847656 458.390625 Z M 754.847656 458.390625 " fill-opacity="1" fill-rule="nonzero"/><path stroke-linecap="round" transform="matrix(1.077029, 0, 0, 1.077029, 59.399278, 6.469605)" fill-opacity="1" fill="#f5f6fb" fill-rule="nonzero" stroke-linejoin="miter" d="M 632.148992 579.628205 C 635.859285 577.720469 639.341085 575.47906 642.550869 572.929367 C 653.239269 564.449734 660.870214 552.680525 663.6484 539.300984 C 664.410043 535.641467 664.809 531.869517 664.809 528.010523 C 664.809 526.548892 664.75097 525.109023 664.638537 523.680034 L 664.638537 523.658273 " stroke="#3b3b3b" stroke-width="4" stroke-opacity="1" stroke-miterlimit="10"/><path stroke-linecap="butt" transform="matrix(1.077029, 0, 0, 1.077029, 59.399278, 6.469605)" fill-opacity="1" fill="#f5f6fb" fill-rule="nonzero" stroke-linejoin="miter" d="M 645.368951 388.800187 L 585.199097 379.79103 " stroke="#3b3b3b" stroke-width="4" stroke-opacity="1" stroke-miterlimit="10"/><path stroke-linecap="butt" transform="matrix(1.077029, 0, 0, 1.077029, 59.399278, 6.469605)" fill-opacity="1" fill="#f5f6fb" fill-rule="nonzero" stroke-linejoin="miter" d="M 645.368951 397.798463 L 585.199097 388.789306 " stroke="#3b3b3b" stroke-width="4" stroke-opacity="1" stroke-miterlimit="10"/><path stroke-linecap="butt" transform="matrix(1.077029, 0, 0, 1.077029, 59.399278, 6.469605)" fill-opacity="1" fill="#f5f6fb" fill-rule="nonzero" stroke-linejoin="miter" d="M 645.368951 406.789486 L 585.199097 397.780329 " stroke="#3b3b3b" stroke-width="4" stroke-opacity="1" stroke-miterlimit="10"/><path stroke-linecap="butt" transform="matrix(1.077029, 0, 0, 1.077029, 59.399278, 6.469605)" fill-opacity="1" fill="#f5f6fb" fill-rule="nonzero" stroke-linejoin="miter" d="M 645.368951 415.791389 L 585.199097 406.778605 " stroke="#3b3b3b" stroke-width="4" stroke-opacity="1" stroke-miterlimit="10"/><path stroke-linecap="butt" transform="matrix(1.077029, 0, 0, 1.077029, 59.399278, 6.469605)" fill-opacity="1" fill="#f5f6fb" fill-rule="nonzero" stroke-linejoin="miter" d="M 598.009219 510.550747 L 610.899132 419.599608 " stroke="#3b3b3b" stroke-width="4" stroke-opacity="1" stroke-miterlimit="10"/><path stroke-linecap="butt" transform="matrix(1.077029, 0, 0, 1.077029, 59.399278, 6.469605)" fill-opacity="1" fill="#f5f6fb" fill-rule="nonzero" stroke-linejoin="miter" d="M 617.53994 419.599608 L 630.440734 510.550747 C 629.951106 508.400011 632.199768 524.619395 643.069512 523.600243 C 645.078801 523.411645 646.979283 522.381613 647.940405 520.600817 C 652.658969 511.820154 624.840839 504.729613 614.22135 514.199383 C 603.141247 524.07899 601.088436 541.709229 614.141559 541.531512 C 626.37138 541.361049 622.360057 508.67928 598.321131 509.83988 " stroke="#3b3b3b" stroke-width="4" stroke-opacity="1" stroke-miterlimit="10"/><path stroke-linecap="butt" transform="matrix(1.077029, 0, 0, 1.077029, 59.399278, 6.469605)" fill-opacity="1" fill="#f5f6fb" fill-rule="nonzero" stroke-linejoin="miter" d="M 598.230459 509.731074 L 598.110772 510.550747 C 598.6004 508.400011 596.351738 524.619395 585.478367 523.600243 C 583.469078 523.411645 581.568596 522.381613 580.611101 520.600817 C 577.539138 514.89937 588.198523 509.90879 598.959461 509.698432 " stroke="#3b3b3b" stroke-width="4" stroke-opacity="1" stroke-miterlimit="10"/><path fill="#f5f6fb" d="M 473.949219 459.304688 L 473.949219 416.503906 L 490.652344 401.902344 L 521.414062 401.902344 L 537.394531 416.484375 L 537.394531 459.304688 Z M 473.949219 459.304688 " fill-opacity="1" fill-rule="nonzero"/><path fill="#0d0d0d" d="M 520.574219 404.054688 L 535.242188 417.429688 L 535.242188 457.152344 L 476.101562 457.152344 L 476.101562 417.484375 L 491.460938 404.054688 L 520.574219 404.054688 M 522.242188 399.746094 L 489.832031 399.746094 L 471.792969 415.535156 L 471.792969 461.460938 L 539.550781 461.460938 L 539.550781 415.535156 Z M 522.242188 399.746094 " fill-opacity="1" fill-rule="nonzero"/><path fill="#f5f6fb" d="M 505.09375 652.148438 C 464.933594 651.773438 432.332031 618.859375 432.332031 578.769531 C 432.332031 577.046875 432.394531 575.28125 432.515625 573.515625 C 435.648438 559.15625 441.667969 545.898438 450.414062 534.085938 C 467.3125 511.261719 475.003906 487.179688 473.882812 460.535156 L 537.167969 460.535156 C 536.050781 487.167969 543.738281 511.25 560.636719 534.085938 C 569.394531 545.910156 575.414062 559.179688 578.539062 573.515625 C 578.667969 575.28125 578.722656 577.046875 578.722656 578.769531 C 578.722656 618.859375 546.121094 651.773438 506.042969 652.148438 Z M 505.09375 652.148438 " fill-opacity="1" fill-rule="nonzero"/><path fill="#0d0d0d" d="M 534.941406 462.699219 C 534.316406 488.957031 542.175781 512.769531 558.902344 535.378906 C 567.445312 546.910156 573.324219 559.847656 576.394531 573.828125 C 576.511719 575.484375 576.566406 577.15625 576.566406 578.769531 C 576.566406 597.671875 569.234375 615.488281 555.929688 628.90625 C 542.628906 642.324219 524.902344 649.8125 506.023438 649.984375 L 505.03125 649.984375 C 486.152344 649.8125 468.421875 642.324219 455.121094 628.90625 C 441.808594 615.476562 434.484375 597.671875 434.484375 578.769531 C 434.484375 577.144531 434.539062 575.484375 434.65625 573.828125 C 437.726562 559.847656 443.609375 546.914062 452.148438 535.378906 C 468.875 512.78125 476.738281 488.957031 476.113281 462.699219 L 534.941406 462.699219 M 539.441406 458.390625 L 471.644531 458.390625 C 473.421875 487.816406 464.308594 511.734375 448.714844 532.8125 C 439.816406 544.824219 433.570312 558.585938 430.414062 573.191406 L 430.414062 573.214844 C 430.285156 575.054688 430.210938 576.90625 430.210938 578.769531 C 430.210938 620.246094 463.640625 653.914062 505.019531 654.300781 C 505.0625 654.300781 505.105469 654.300781 505.160156 654.300781 C 505.289062 654.300781 505.429688 654.300781 505.558594 654.300781 C 505.6875 654.300781 505.828125 654.300781 505.957031 654.300781 C 506 654.300781 506.042969 654.300781 506.097656 654.300781 C 547.476562 653.914062 580.90625 620.246094 580.90625 578.769531 C 580.90625 576.898438 580.832031 575.042969 580.703125 573.214844 L 580.703125 573.191406 C 577.535156 558.585938 571.289062 544.824219 562.402344 532.8125 C 546.765625 511.734375 537.664062 487.816406 539.441406 458.390625 Z M 539.441406 458.390625 " fill-opacity="1" fill-rule="nonzero"/><path stroke-linecap="round" transform="matrix(1.077029, 0, 0, 1.077029, 59.399278, 6.469605)" fill-opacity="1" fill="#f5f6fb" fill-rule="nonzero" stroke-linejoin="miter" d="M 432.148607 579.628205 C 435.8589 577.720469 439.3407 575.47906 442.550484 572.929367 C 453.238884 564.449734 460.869829 552.680525 463.651642 539.300984 C 464.409659 535.641467 464.808615 531.869517 464.808615 528.010523 C 464.808615 526.548892 464.750585 525.109023 464.641779 523.680034 L 464.641779 523.658273 " stroke="#3b3b3b" stroke-width="4" stroke-opacity="1" stroke-miterlimit="10"/><path stroke-linecap="butt" transform="matrix(1.077029, 0, 0, 1.077029, 59.399278, 6.469605)" fill-opacity="1" fill="#f5f6fb" fill-rule="nonzero" stroke-linejoin="miter" d="M 445.368566 388.800187 L 385.198713 379.79103 " stroke="#3b3b3b" stroke-width="4" stroke-opacity="1" stroke-miterlimit="10"/><path stroke-linecap="butt" transform="matrix(1.077029, 0, 0, 1.077029, 59.399278, 6.469605)" fill-opacity="1" fill="#f5f6fb" fill-rule="nonzero" stroke-linejoin="miter" d="M 445.368566 397.798463 L 385.198713 388.789306 " stroke="#3b3b3b" stroke-width="4" stroke-opacity="1" stroke-miterlimit="10"/><path stroke-linecap="butt" transform="matrix(1.077029, 0, 0, 1.077029, 59.399278, 6.469605)" fill-opacity="1" fill="#f5f6fb" fill-rule="nonzero" stroke-linejoin="miter" d="M 445.368566 406.789486 L 385.198713 397.780329 " stroke="#3b3b3b" stroke-width="4" stroke-opacity="1" stroke-miterlimit="10"/><path stroke-linecap="butt" transform="matrix(1.077029, 0, 0, 1.077029, 59.399278, 6.469605)" fill-opacity="1" fill="#f5f6fb" fill-rule="nonzero" stroke-linejoin="miter" d="M 445.368566 415.791389 L 385.198713 406.778605 " stroke="#3b3b3b" stroke-width="4" stroke-opacity="1" stroke-miterlimit="10"/><path stroke-linecap="butt" transform="matrix(1.077029, 0, 0, 1.077029, 59.399278, 6.469605)" fill-opacity="1" fill="#f5f6fb" fill-rule="nonzero" stroke-linejoin="miter" d="M 398.008835 510.550747 L 410.898748 419.599608 " stroke="#3b3b3b" stroke-width="4" stroke-opacity="1" stroke-miterlimit="10"/><path stroke-linecap="butt" transform="matrix(1.077029, 0, 0, 1.077029, 59.399278, 6.469605)" fill-opacity="1" fill="#f5f6fb" fill-rule="nonzero" stroke-linejoin="miter" d="M 417.539555 419.599608 L 430.440349 510.550747 C 429.950721 508.400011 432.199383 524.619395 443.069127 523.600243 C 445.078416 523.411645 446.978898 522.381613 447.94002 520.600817 C 452.658584 511.820154 424.840454 504.729613 414.220965 514.199383 C 403.140862 524.07899 401.091678 541.709229 414.141174 541.531512 C 426.370996 541.361049 422.359672 508.67928 398.320746 509.83988 " stroke="#3b3b3b" stroke-width="4" stroke-opacity="1" stroke-miterlimit="10"/><path stroke-linecap="butt" transform="matrix(1.077029, 0, 0, 1.077029, 59.399278, 6.469605)" fill-opacity="1" fill="#f5f6fb" fill-rule="nonzero" stroke-linejoin="miter" d="M 398.230074 509.731074 L 398.110387 510.550747 C 398.600015 508.400011 396.351353 524.619395 385.481609 523.600243 C 383.468693 523.411645 381.568211 522.381613 380.610716 520.600817 C 377.538753 514.89937 388.201765 509.90879 398.959076 509.698432 " stroke="#3b3b3b" stroke-width="4" stroke-opacity="1" stroke-miterlimit="10"/><path fill="#f5f6fb" d="M 258.542969 459.304688 L 258.542969 416.503906 L 275.246094 401.902344 L 306.007812 401.902344 L 321.988281 416.484375 L 321.988281 459.304688 Z M 258.542969 459.304688 " fill-opacity="1" fill-rule="nonzero"/><path fill="#0d0d0d" d="M 305.167969 404.054688 L 319.835938 417.429688 L 319.835938 457.152344 L 260.695312 457.152344 L 260.695312 417.484375 L 276.054688 404.054688 L 305.167969 404.054688 M 306.835938 399.746094 L 274.429688 399.746094 L 256.386719 415.535156 L 256.386719 461.460938 L 324.144531 461.460938 L 324.144531 415.535156 Z M 306.835938 399.746094 " fill-opacity="1" fill-rule="nonzero"/><path fill="#f5f6fb" d="M 289.691406 652.148438 C 249.527344 651.773438 216.925781 618.859375 216.925781 578.769531 C 216.925781 577.046875 216.988281 575.28125 217.109375 573.515625 C 220.242188 559.15625 226.261719 545.898438 235.007812 534.085938 C 251.90625 511.261719 259.597656 487.179688 258.476562 460.535156 L 321.761719 460.535156 C 320.644531 487.167969 328.332031 511.25 345.230469 534.085938 C 353.988281 545.910156 360.007812 559.179688 363.132812 573.515625 C 363.261719 575.28125 363.316406 577.046875 363.316406 578.769531 C 363.316406 618.859375 330.714844 651.773438 290.636719 652.148438 Z M 289.691406 652.148438 " fill-opacity="1" fill-rule="nonzero"/><path fill="#0d0d0d" d="M 319.535156 462.699219 C 318.910156 488.957031 326.773438 512.769531 343.496094 535.378906 C 352.039062 546.910156 357.917969 559.847656 360.988281 573.828125 C 361.109375 575.484375 361.160156 577.15625 361.160156 578.769531 C 361.160156 597.671875 353.828125 615.488281 340.527344 628.90625 C 327.222656 642.324219 309.496094 649.8125 290.617188 649.984375 L 289.625 649.984375 C 270.746094 649.8125 253.015625 642.324219 239.714844 628.90625 C 226.402344 615.476562 219.078125 597.671875 219.078125 578.769531 C 219.078125 577.144531 219.132812 575.484375 219.25 573.828125 C 222.320312 559.847656 228.203125 546.914062 236.742188 535.378906 C 253.46875 512.78125 261.332031 488.957031 260.707031 462.699219 L 319.535156 462.699219 M 324.035156 458.390625 L 256.238281 458.390625 C 258.015625 487.816406 248.902344 511.734375 233.308594 532.8125 C 224.410156 544.824219 218.164062 558.585938 215.007812 573.191406 L 215.007812 573.214844 C 214.878906 575.054688 214.804688 576.90625 214.804688 578.769531 C 214.804688 620.246094 248.234375 653.914062 289.613281 654.300781 C 289.65625 654.300781 289.699219 654.300781 289.753906 654.300781 C 289.882812 654.300781 290.023438 654.300781 290.152344 654.300781 C 290.28125 654.300781 290.421875 654.300781 290.550781 654.300781 C 290.59375 654.300781 290.636719 654.300781 290.691406 654.300781 C 332.070312 653.914062 365.5 620.246094 365.5 578.769531 C 365.5 576.898438 365.425781 575.042969 365.296875 573.214844 L 365.296875 573.191406 C 362.128906 558.585938 355.882812 544.824219 347 532.8125 C 331.359375 511.734375 322.257812 487.816406 324.035156 458.390625 Z M 324.035156 458.390625 " fill-opacity="1" fill-rule="nonzero"/><path stroke-linecap="round" transform="matrix(1.077029, 0, 0, 1.077029, 59.399278, 6.469605)" fill-opacity="1" fill="#f5f6fb" fill-rule="nonzero" stroke-linejoin="miter" d="M 232.148222 579.628205 C 235.858515 577.720469 239.340315 575.47906 242.550099 572.929367 C 253.238499 564.449734 260.869444 552.680525 263.651257 539.300984 C 264.409274 535.641467 264.80823 531.869517 264.80823 528.010523 C 264.80823 526.548892 264.7502 525.109023 264.641394 523.680034 L 264.641394 523.658273 " stroke="#3b3b3b" stroke-width="4" stroke-opacity="1" stroke-miterlimit="10"/><path stroke-linecap="butt" transform="matrix(1.077029, 0, 0, 1.077029, 59.399278, 6.469605)" fill-opacity="1" fill="#f5f6fb" fill-rule="nonzero" stroke-linejoin="miter" d="M 245.371808 388.800187 L 185.198328 379.79103 " stroke="#3b3b3b" stroke-width="4" stroke-opacity="1" stroke-miterlimit="10"/><path stroke-linecap="butt" transform="matrix(1.077029, 0, 0, 1.077029, 59.399278, 6.469605)" fill-opacity="1" fill="#f5f6fb" fill-rule="nonzero" stroke-linejoin="miter" d="M 245.371808 397.798463 L 185.198328 388.789306 " stroke="#3b3b3b" stroke-width="4" stroke-opacity="1" stroke-miterlimit="10"/><path stroke-linecap="butt" transform="matrix(1.077029, 0, 0, 1.077029, 59.399278, 6.469605)" fill-opacity="1" fill="#f5f6fb" fill-rule="nonzero" stroke-linejoin="miter" d="M 245.371808 406.789486 L 185.198328 397.780329 " stroke="#3b3b3b" stroke-width="4" stroke-opacity="1" stroke-miterlimit="10"/><path stroke-linecap="butt" transform="matrix(1.077029, 0, 0, 1.077029, 59.399278, 6.469605)" fill-opacity="1" fill="#f5f6fb" fill-rule="nonzero" stroke-linejoin="miter" d="M 245.371808 415.791389 L 185.198328 406.778605 " stroke="#3b3b3b" stroke-width="4" stroke-opacity="1" stroke-miterlimit="10"/><path stroke-linecap="butt" transform="matrix(1.077029, 0, 0, 1.077029, 59.399278, 6.469605)" fill-opacity="1" fill="#f5f6fb" fill-rule="nonzero" stroke-linejoin="miter" d="M 198.00845 510.550747 L 210.898363 419.599608 " stroke="#3b3b3b" stroke-width="4" stroke-opacity="1" stroke-miterlimit="10"/><path stroke-linecap="butt" transform="matrix(1.077029, 0, 0, 1.077029, 59.399278, 6.469605)" fill-opacity="1" fill="#f5f6fb" fill-rule="nonzero" stroke-linejoin="miter" d="M 217.539171 419.599608 L 230.439964 510.550747 C 229.950336 508.400011 232.198999 524.619395 243.068742 523.600243 C 245.081658 523.411645 246.978513 522.381613 247.939635 520.600817 C 252.658199 511.820154 224.84007 504.729613 214.22058 514.199383 C 203.140478 524.07899 201.091293 541.709229 214.140789 541.531512 C 226.370611 541.361049 222.359287 508.67928 198.320361 509.83988 " stroke="#3b3b3b" stroke-width="4" stroke-opacity="1" stroke-miterlimit="10"/><path stroke-linecap="butt" transform="matrix(1.077029, 0, 0, 1.077029, 59.399278, 6.469605)" fill-opacity="1" fill="#f5f6fb" fill-rule="nonzero" stroke-linejoin="miter" d="M 198.229689 509.731074 L 198.110002 510.550747 C 198.59963 508.400011 196.350968 524.619395 185.481224 523.600243 C 183.468309 523.411645 181.571453 522.381613 180.610331 520.600817 C 177.538368 514.89937 188.20138 509.90879 198.958691 509.698432 " stroke="#3b3b3b" stroke-width="4" stroke-opacity="1" stroke-miterlimit="10"/><path fill="#f5f6fb" d="M 460.160156 83.242188 L 345.921875 83.242188 C 383.996094 83.304688 422.101562 83.335938 460.183594 83.390625 C 460.171875 83.335938 460.160156 83.285156 460.160156 83.242188 Z M 460.160156 83.242188 " fill-opacity="1" fill-rule="nonzero"/><g clip-path="url(#0e22cb9c6f)"><path stroke-linecap="butt" transform="matrix(1.077029, 0, 0, 1.077029, 59.399278, 6.469605)" fill="none" stroke-linejoin="miter" d="M 372.098441 71.281804 L 266.030487 71.281804 C 301.381636 71.339834 336.7618 71.368849 372.120202 71.419625 C 372.109321 71.368849 372.098441 71.3217 372.098441 71.281804 Z M 372.098441 71.281804 " stroke="#3b3b3b" stroke-width="4" stroke-opacity="1" stroke-miterlimit="10"/></g><path fill="#f5f6fb" d="M 1207.457031 83.242188 L 1142.761719 83.242188 C 1142.738281 83.304688 1142.71875 83.359375 1142.6875 83.421875 C 1164.269531 83.402344 1185.863281 83.359375 1207.449219 83.335938 C 1207.449219 83.292969 1207.449219 83.261719 1207.457031 83.242188 Z M 1207.457031 83.242188 " fill-opacity="1" fill-rule="nonzero"/><g clip-path="url(#3d6aa1a772)"><path stroke-linecap="butt" transform="matrix(1.077029, 0, 0, 1.077029, 59.399278, 6.469605)" fill="none" stroke-linejoin="miter" d="M 1065.948608 71.281804 L 1005.880307 71.281804 C 1005.858546 71.339834 1005.840412 71.39061 1005.811397 71.44864 C 1025.84988 71.430506 1045.899244 71.39061 1065.941354 71.368849 C 1065.941354 71.328953 1065.941354 71.299938 1065.948608 71.281804 Z M 1065.948608 71.281804 " stroke="#3b3b3b" stroke-width="4" stroke-opacity="1" stroke-miterlimit="10"/></g><g clip-path="url(#f4cfd39914)"><path fill="#f5f6fb" d="M 1228.742188 83.242188 C 1228.742188 83.261719 1228.742188 83.273438 1228.742188 83.292969 C 1228.742188 83.292969 1228.75 83.292969 1228.75 83.304688 C 1243.558594 83.285156 1258.371094 83.273438 1273.179688 83.242188 Z M 1228.742188 83.242188 " fill-opacity="1" fill-rule="nonzero"/></g><g clip-path="url(#f376e6111e)"><path stroke-linecap="butt" transform="matrix(1.077029, 0, 0, 1.077029, 59.399278, 6.469605)" fill="none" stroke-linejoin="miter" d="M 1085.711449 71.281804 C 1085.711449 71.299938 1085.711449 71.310819 1085.711449 71.328953 C 1085.711449 71.328953 1085.718703 71.328953 1085.718703 71.339834 C 1099.468185 71.3217 1113.221294 71.310819 1126.970777 71.281804 Z M 1085.711449 71.281804 " stroke="#3b3b3b" stroke-width="4" stroke-opacity="1" stroke-miterlimit="10"/></g><path fill="#f5f6fb" d="M 1098.925781 83.242188 L 1001.488281 83.242188 C 1001.519531 83.347656 1001.550781 83.445312 1001.585938 83.550781 C 1034.035156 83.53125 1066.484375 83.5 1098.9375 83.464844 C 1098.925781 83.390625 1098.925781 83.316406 1098.925781 83.242188 Z M 1098.925781 83.242188 " fill-opacity="1" fill-rule="nonzero"/><g clip-path="url(#00711a4b89)"><path stroke-linecap="butt" transform="matrix(1.077029, 0, 0, 1.077029, 59.399278, 6.469605)" fill="none" stroke-linejoin="miter" d="M 965.179518 71.281804 L 874.710753 71.281804 C 874.739768 71.37973 874.768783 71.470402 874.801425 71.568327 C 904.929874 71.550193 935.058323 71.521178 965.190399 71.488536 C 965.179518 71.419625 965.179518 71.350715 965.179518 71.281804 Z M 965.179518 71.281804 " stroke="#3b3b3b" stroke-width="4" stroke-opacity="1" stroke-miterlimit="10"/></g><path fill="#f5f6fb" d="M 945.34375 83.242188 L 498.632812 83.242188 C 498.128906 83.304688 497.621094 83.371094 497.113281 83.433594 C 646.464844 83.605469 795.914062 83.648438 945.429688 83.585938 C 945.394531 83.464844 945.363281 83.347656 945.34375 83.242188 Z M 945.34375 83.242188 " fill-opacity="1" fill-rule="nonzero"/><g clip-path="url(#bddf26ef6f)"><path stroke-linecap="butt" transform="matrix(1.077029, 0, 0, 1.077029, 59.399278, 6.469605)" fill="none" stroke-linejoin="miter" d="M 822.581681 71.281804 L 407.819531 71.281804 C 407.351664 71.339834 406.88017 71.401491 406.408677 71.459521 C 545.078608 71.619103 683.839212 71.658999 822.661472 71.600969 C 822.62883 71.488536 822.599815 71.37973 822.581681 71.281804 Z M 822.581681 71.281804 " stroke="#3b3b3b" stroke-width="4" stroke-opacity="1" stroke-miterlimit="10"/></g><g clip-path="url(#9a59587f27)"><path fill="#f5f6fb" d="M 223.214844 83.242188 L 166.953125 83.242188 C 185.800781 83.457031 204.496094 83.585938 223.214844 83.628906 C 223.203125 83.488281 223.214844 83.359375 223.214844 83.242188 Z M 223.214844 83.242188 " fill-opacity="1" fill-rule="nonzero"/></g><g clip-path="url(#a13aadfd71)"><path stroke-linecap="butt" transform="matrix(1.077029, 0, 0, 1.077029, 59.399278, 6.469605)" fill="none" stroke-linejoin="miter" d="M 152.099468 71.281804 L 99.86159 71.281804 C 117.361261 71.481282 134.719484 71.600969 152.099468 71.640865 C 152.088588 71.510297 152.099468 71.39061 152.099468 71.281804 Z M 152.099468 71.281804 " stroke="#3b3b3b" stroke-width="4" stroke-opacity="1" stroke-miterlimit="10"/></g><path fill="#f5f6fb" d="M 233.597656 83.242188 C 233.597656 83.371094 233.609375 83.507812 233.597656 83.640625 C 258.316406 83.648438 283.097656 83.519531 308.320312 83.242188 Z M 233.597656 83.242188 " fill-opacity="1" fill-rule="nonzero"/><g clip-path="url(#fda882193e)"><path stroke-linecap="butt" transform="matrix(1.077029, 0, 0, 1.077029, 59.399278, 6.469605)" fill="none" stroke-linejoin="miter" d="M 161.739702 71.281804 C 161.739702 71.401491 161.750582 71.528432 161.739702 71.651745 C 184.690565 71.658999 207.699459 71.539312 231.11819 71.281804 Z M 161.739702 71.281804 " stroke="#3b3b3b" stroke-width="4" stroke-opacity="1" stroke-miterlimit="10"/></g><path stroke-linecap="butt" transform="matrix(1.077029, 0, 0, 1.077029, 59.399278, 6.469605)" fill="none" stroke-linejoin="miter" d="M 1014.218492 365.149336 L 1014.218492 71.281804 " stroke="#3b3b3b" stroke-width="4" stroke-opacity="1" stroke-miterlimit="10"/><path stroke-linecap="butt" transform="matrix(1.077029, 0, 0, 1.077029, 59.399278, 6.469605)" fill="none" stroke-linejoin="miter" d="M 906.881132 541.538766 L 936.828238 541.538766 " stroke="#3b3b3b" stroke-width="4" stroke-opacity="1" stroke-miterlimit="10"/><path fill="#f5f6fb" d="M 1069.976562 671.40625 L 1092.777344 648.605469 " fill-opacity="1" fill-rule="nonzero"/><g clip-path="url(#83b5b2ec34)"><path stroke-linecap="butt" transform="matrix(1.077029, 0, 0, 1.077029, 59.399278, 6.469605)" fill="none" stroke-linejoin="miter" d="M 938.300749 617.380345 L 959.470817 596.210277 " stroke="#3b3b3b" stroke-width="4" stroke-opacity="1" stroke-miterlimit="10"/></g><g clip-path="url(#9e35b59b38)"><path stroke-linecap="butt" transform="matrix(1.077029, 0, 0, 1.077029, 59.399278, 6.469605)" fill="none" stroke-linejoin="miter" d="M 1014.138701 648.789081 L 1014.138701 618.849229 " stroke="#000000" stroke-width="4" stroke-opacity="1" stroke-miterlimit="10"/></g><path fill="#f5f6fb" d="M 1233.339844 671.40625 L 1210.539062 648.59375 " fill-opacity="1" fill-rule="nonzero"/><g clip-path="url(#a6f8825e63)"><path stroke-linecap="butt" transform="matrix(1.077029, 0, 0, 1.077029, 59.399278, 6.469605)" fill="none" stroke-linejoin="miter" d="M 1089.98028 617.380345 L 1068.810212 596.199396 " stroke="#3b3b3b" stroke-width="4" stroke-opacity="1" stroke-miterlimit="10"/></g><path stroke-linecap="butt" transform="matrix(1.077029, 0, 0, 1.077029, 59.399278, 6.469605)" fill="none" stroke-linejoin="miter" d="M 1121.389016 541.538766 L 1091.449165 541.538766 " stroke="#3b3b3b" stroke-width="4" stroke-opacity="1" stroke-miterlimit="10"/><g clip-path="url(#57d73bd263)"><path stroke-linecap="butt" transform="matrix(1.077029, 0, 0, 1.077029, 59.399278, 6.469605)" fill="none" stroke-linejoin="miter" d="M 620.408798 71.651745 C 626.980695 93.931637 620.568381 125.739329 627.140278 148.019221 C 631.039168 161.260941 612.320867 174.201631 601.320556 165.870699 C 590.320245 157.539768 597.700935 136.010639 611.501194 136.181102 C 621.409816 136.300789 628.888431 144.900109 634.658789 152.959025 C 640.429147 161.021568 646.979283 170.008963 656.760964 171.608415 C 666.539019 173.211494 672.331138 163.219454 670.140506 153.550206 C 664.798119 130.011788 640.258684 122.830576 614.710978 127.320647 C 594.008776 130.951149 572.29105 143.068537 570.339791 163.988351 C 568.388533 184.911792 592.271503 205.20053 611.178402 196.039044 C 625.330467 189.180624 644.240993 202.690732 643.218214 218.380593 C 642.199062 234.070453 623.020148 245.121541 608.541664 238.999376 C 594.059553 232.880838 588.278314 212.621116 596.529454 199.230694 C 604.780595 185.840272 624.391107 181.57144 638.020902 189.409117 C 642.90993 192.219945 648.488063 183.170892 643.780379 180.069914 C 621.181323 165.170712 585.768517 178.140417 578.148453 204.119721 C 570.528389 230.091772 593.30879 260.15131 620.379783 259.821264 C 630.081673 259.701578 636.4686 272.87076 631.158855 280.991333 C 625.84911 289.108279 612.49133 289.42019 605.959329 282.249858 C 599.430954 275.079527 600.250628 262.889601 606.840659 255.759165 C 613.430691 248.639609 624.499913 246.61944 633.701294 249.691403 C 642.449316 252.611037 652.488506 242.818475 649.790111 234.001543 C 647.088089 225.170103 633.291458 222.67844 627.669802 230.0011 C 597.588502 269.178602 593.098431 326.290999 616.698505 369.679303 " stroke="#3b3b3b" stroke-width="4" stroke-opacity="1" stroke-miterlimit="10"/></g><g clip-path="url(#b2e63cd5b3)"><path stroke-linecap="butt" transform="matrix(1.077029, 0, 0, 1.077029, 59.399278, 6.469605)" fill="none" stroke-linejoin="miter" d="M 794.328326 71.651745 C 779.138974 96.078747 796.330361 144.700631 822.868204 155.820629 C 834.771607 160.811209 833.360753 179.678212 823.669743 188.201368 C 813.978734 196.720896 800.258267 198.298587 787.70928 201.290759 C 775.160293 204.279304 761.508736 210.590066 757.831085 222.961336 C 754.160688 235.328979 769.94122 250.318852 779.599588 241.770309 C 794.999298 228.140513 823.698758 236.870401 828.899697 256.771063 C 834.100635 276.671725 813.340404 298.331421 793.251144 293.979171 C 782.040474 291.560046 777.151447 309.708928 784.198465 318.761607 C 791.238229 327.81066 803.308468 331.310594 811.838878 338.981434 C 820.369287 346.648648 822.679607 363.771124 811.791728 367.379864 " stroke="#3b3b3b" stroke-width="4" stroke-opacity="1" stroke-miterlimit="10"/></g><path stroke-linecap="round" transform="matrix(1.077029, 0, 0, 1.077029, 59.399278, 6.469605)" fill="none" stroke-linejoin="round" d="M 417.851467 74.839768 C 418.449901 95.90103 419.059216 116.958666 419.661277 138.019928 C 416.088805 128.038768 394.860707 124.749193 388.879991 136.061415 C 386.48988 140.569621 387.371211 145.85035 391.150414 149.73836 C 400.631065 159.491026 420.078368 152.070441 420.270592 141.701206 C 420.538981 127.229975 449.561233 121.180348 461.370338 132.329361 C 473.179442 143.489255 464.819495 162.501333 447.838468 168.300705 C 430.861067 174.100078 409.981148 168.369616 397.780341 157.481738 C 386.718373 147.609385 363.049388 151.519156 356.031385 163.440693 C 349.009756 175.358604 358.160361 190.729299 373.498415 196.060805 C 388.840095 201.388684 410.688389 200.471085 419.998577 188.509652 C 439.39873 163.600276 458.26936 170.309994 460.960501 172.529641 C 473.868548 183.199907 464.340748 204.250289 451.120789 209.67972 C 438.071294 215.040241 422.711479 207.369401 422.428583 195.861327 C 422.080403 181.611336 397.12025 172.10167 381.20915 179.721734 C 364.790288 187.581172 362.479969 207.478207 374.328969 219.341715 C 386.181596 231.201595 408.200353 234.940903 426.748191 230.918699 C 444.189832 227.139496 461.631473 243.768717 455.440397 257.061213 C 449.260203 270.350082 425.46065 275.351542 410.100835 267.88018 C 394.73014 260.408818 389.260812 243.64903 395.520798 230.378295 C 401.791665 217.111187 431.118575 221.311108 435.329376 203.949258 C 441.299212 179.359047 375.899406 193.398679 364.278899 213.578611 C 352.658392 233.758542 373.868356 260.601043 402.16886 261.518642 C 430.469364 262.439868 420.901668 230.171563 442.409036 222.279483 C 457.35176 216.799275 469.900747 235.220173 465.131407 247.758279 C 460.358439 260.300012 444.849923 269.171348 428.409299 271.69928 C 413.169171 274.038614 397.330609 271.670265 382.761453 267.339776 C 368.308357 263.038302 355.839161 276.678979 365.798559 285.920256 C 374.289073 293.801455 390.131262 293.329961 402.45901 289.739355 C 414.739608 286.159629 426.080846 280.171659 439.068684 278.851477 C 452.06015 277.531294 467.851563 283.580921 468.148967 293.819589 C 468.479012 304.830781 448.828604 311.159677 436.870798 305.33129 C 424.909365 299.499275 421.601655 286.46066 425.471531 275.859305 C 429.341406 265.26883 454.860097 258.490201 447.94002 248.178996 C 432.181249 224.691355 404.250686 281.549871 399.78963 304.649437 C 395.328574 327.749003 395.419246 349.488491 415.269132 366.948266 " stroke="#3b3b3b" stroke-width="4.525" stroke-opacity="1" stroke-miterlimit="10"/><path stroke-linecap="butt" transform="matrix(1.077029, 0, 0, 1.077029, 59.399278, 6.469605)" fill-opacity="1" fill="#f5f6fb" fill-rule="nonzero" stroke-linejoin="miter" d="M 214.659432 308.131237 C 214.420058 324.640771 214.039236 350.460493 213.799863 366.970027 " stroke="#3b3b3b" stroke-width="4.615" stroke-opacity="1" stroke-miterlimit="10"/><path fill="#f5f6fb" d="M 282.160156 83.242188 C 282.152344 91.457031 283.980469 119.816406 284.390625 132.222656 C 284.703125 141.570312 273.597656 167.183594 263.367188 152.859375 C 261.632812 133.988281 284.5 130.597656 296.011719 144.136719 C 300.308594 149.1875 305.003906 161.691406 300.558594 168.28125 C 290.90625 182.554688 268.785156 177.652344 264.089844 163.125 C 259.597656 149.242188 239.597656 141.636719 225.542969 148.476562 C 211.488281 155.316406 207.40625 174.648438 217.667969 185.71875 C 227.933594 196.792969 249.625 196.445312 259.457031 185.050781 C 267.804688 175.378906 279.890625 167.9375 293.339844 166.503906 C 306.792969 165.074219 321.375 170.425781 328.238281 181.023438 C 335.097656 191.621094 332.320312 207.042969 320.976562 213.753906 C 309.636719 220.476562 291.53125 215.261719 288.074219 203.394531 C 284.359375 190.652344 277.011719 178.804688 266.941406 169.304688 C 254.167969 157.265625 228.191406 165.460938 223.59375 181.636719 C 219.003906 197.816406 233.382812 215.199219 251.359375 218.804688 C 269.332031 222.414062 288.472656 214.335938 300.363281 201.574219 C 311.15625 189.984375 333.074219 189.683594 345.039062 200.28125 C 357.003906 210.878906 357.703125 229.824219 347.449219 241.800781 C 337.199219 253.777344 317.800781 258.019531 302.171875 252.636719 C 286.542969 247.25 275.386719 233.152344 273.425781 218.09375 C 271.316406 201.917969 248.96875 191.386719 232.726562 198.332031 C 216.484375 205.269531 210.777344 226.472656 220.8125 239.992188 C 230.839844 253.496094 253.511719 257.019531 268.570312 248.144531 C 283.613281 239.269531 289.472656 220.011719 282.65625 204.945312 C 279.328125 197.597656 284.984375 188.109375 293.578125 186.625 C 302.171875 185.136719 311.285156 192.050781 311.175781 200 C 310.972656 215.316406 310.378906 231.730469 300.4375 244.117188 C 290.507812 256.5 267.480469 261.15625 257.109375 249.070312 C 248.859375 239.453125 229.097656 245.796875 226.511719 257.75 C 223.925781 269.707031 235.160156 281.511719 248.234375 284.300781 C 261.308594 287.078125 275.074219 282.78125 286.511719 276.40625 C 297.960938 270.03125 307.871094 261.617188 319.113281 254.949219 C 330.207031 248.382812 344.960938 263.308594 339.859375 274.402344 C 334.753906 285.496094 318.800781 289.277344 305.878906 286.636719 C 292.953125 284 281.882812 276.730469 270.066406 271.289062 C 258.25 265.851562 243.980469 262.242188 231.949219 267.273438 C 219.917969 272.300781 214.351562 289.242188 224.820312 296.609375 C 240.492188 307.640625 263.078125 309.867188 280.996094 302.179688 C 298.917969 294.488281 311.339844 277.214844 311.875 259.226562 C 312.113281 251.503906 321.054688 245.011719 329.410156 246.496094 C 337.769531 247.984375 343.335938 257.0625 340.34375 264.289062 C 328.054688 293.90625 292.707031 314.1875 257.9375 311.558594 C 247.253906 310.75 238.90625 322.535156 242.363281 331.742188 C 245.820312 340.953125 257.875 345.960938 268.460938 344.417969 C 279.046875 342.878906 287.964844 336.050781 293.945312 327.972656 C 299.921875 319.894531 303.421875 310.558594 307.117188 301.425781 C 311.640625 290.246094 333.191406 292.832031 336.722656 304.3125 C 340.257812 315.78125 328.03125 327.769531 314.914062 328.316406 C 301.796875 328.867188 289.765625 320.628906 283.042969 310.394531 C 276.3125 300.164062 273.867188 288.15625 271.542969 276.425781 C 257.398438 289.070312 263 314.445312 281.429688 321.167969 C 289.925781 324.269531 293.824219 334.867188 289.066406 341.976562 C 284.304688 349.082031 272.144531 350.839844 265.199219 345.421875 C 249.429688 333.132812 242.289062 312.433594 247.535156 294.175781 C 252.769531 275.921875 270.128906 261.015625 290.496094 257.257812 C 306.792969 254.25 318.359375 237.675781 314.386719 223.027344 C 310.410156 208.378906 291.671875 198.578125 275.710938 202.789062 C 259.359375 207.097656 242.019531 213.214844 233.230469 226.441406 C 224.441406 239.667969 230.808594 261.335938 247.707031 263.136719 C 269.214844 265.417969 288.105469 281.371094 292.167969 300.671875 C 296.226562 319.972656 247.179688 340.597656 266.070312 350.429688 C 275.269531 355.210938 286.804688 343.632812 286.738281 343.988281 C 286.726562 344.679688 286.71875 345.378906 286.707031 346.066406 " fill-opacity="1" fill-rule="nonzero"/><g clip-path="url(#88220e1e78)"><path stroke-linecap="butt" transform="matrix(1.077029, 0, 0, 1.077029, 59.399278, 6.469605)" fill="none" stroke-linejoin="miter" d="M 206.829009 71.281804 C 206.821756 78.909122 208.519133 105.240233 208.899955 116.759187 C 209.190105 125.438299 198.8789 149.219717 189.380115 135.919967 C 187.769782 118.398535 209.001507 115.250407 219.689907 127.821156 C 223.67947 132.510705 228.038973 144.120331 223.91159 150.238869 C 214.949582 163.491469 194.41059 158.939742 190.051086 145.451394 C 185.88018 132.561481 167.310581 125.499956 154.261086 131.850614 C 141.21159 138.201271 137.421506 156.150675 146.949306 166.429238 C 156.480733 176.711428 176.620769 176.388636 185.749613 165.809042 C 193.500244 156.8289 204.721795 149.919704 217.209125 148.588641 C 229.700082 147.261205 243.239206 152.230023 249.611625 162.069734 C 255.980417 171.909446 253.401709 186.228348 242.869264 192.459319 C 232.340447 198.70117 215.529882 193.859292 212.320098 182.840847 C 208.87094 171.009981 202.048788 160.00967 192.698705 151.18911 C 180.838824 140.011082 156.720107 147.620265 152.451275 162.639154 C 148.189697 177.661669 161.540223 193.801262 178.231101 197.148868 C 194.918352 200.5001 212.690039 192.999723 223.730246 181.150723 C 233.751301 170.389785 254.101696 170.110516 265.210813 179.950227 C 276.319931 189.789939 276.969141 207.380282 267.448595 218.50028 C 257.931675 229.620278 239.920615 233.559064 225.409489 228.56123 C 210.898363 223.55977 200.540008 210.470379 198.719317 196.488776 C 196.760805 181.469888 176.011454 171.691833 160.930908 178.140417 C 145.850363 184.581746 140.551499 204.268423 149.86894 216.821037 C 159.179128 229.359143 180.229509 232.630584 194.211112 224.390324 C 208.178207 216.150065 213.618519 198.269572 207.289622 184.280716 C 204.199525 177.458564 209.45124 168.648885 217.430364 167.270673 C 225.409489 165.888834 233.870988 172.308402 233.769435 179.689092 C 233.580838 193.910068 233.029553 209.150196 223.799157 220.651016 C 214.579641 232.14821 193.199214 236.471444 183.569861 225.249894 C 175.909901 216.320528 157.561542 222.210573 155.160551 233.30881 C 152.75956 244.410673 163.190452 255.371089 175.329602 257.960678 C 187.468752 260.539386 200.249858 256.549823 210.869348 250.630764 C 221.499718 244.711704 230.701099 236.899416 241.139245 230.70834 C 251.43957 224.611564 265.138276 238.469852 260.401577 248.770177 C 255.661252 259.070501 240.849095 262.581316 228.851393 260.129549 C 216.850064 257.681408 206.571501 250.931794 195.600205 245.879558 C 184.628909 240.830948 171.379935 237.479716 160.20916 242.15113 C 149.038386 246.818918 143.870089 262.548674 153.590114 269.38896 C 168.141136 279.631255 189.111726 281.698573 205.748201 274.560884 C 222.388302 267.419567 233.921764 251.381527 234.418646 234.679768 C 234.639885 227.509437 242.941802 221.481571 250.699687 222.859783 C 258.461199 224.241623 263.629496 232.67048 260.85131 239.380198 C 249.441161 266.879163 216.621571 285.709897 184.338759 283.26901 C 174.419256 282.518247 166.668624 293.460528 169.878409 302.009072 C 173.088193 310.561243 184.280729 315.210897 194.109559 313.778281 C 203.93839 312.349292 212.218545 306.009515 217.771291 298.509138 C 223.320409 291.008761 226.570089 282.34053 230.001112 273.860897 C 234.201034 263.480781 254.210502 265.881772 257.489197 276.541157 C 260.771518 287.189662 249.4194 298.320541 237.240355 298.828303 C 225.061309 299.339692 213.890535 291.690613 207.648683 282.188201 C 201.399578 272.689416 199.129154 261.540403 196.971164 250.648898 C 183.83825 262.389092 189.039188 285.949271 206.150784 292.191122 C 214.039236 295.070861 217.658857 304.910572 213.241324 311.511484 C 208.820164 318.10877 197.529702 319.740863 191.081119 314.710388 C 176.439425 303.30024 169.809498 284.08143 174.680391 267.129417 C 179.540403 250.181031 195.658235 236.340877 214.56876 232.851823 C 229.700082 230.05913 240.439258 214.6703 236.750727 201.069519 C 233.058568 187.468739 215.660449 178.36891 200.841039 182.278681 C 185.658941 186.279124 169.559244 191.95881 161.398775 204.239408 C 153.238307 216.520006 159.150113 236.638281 174.839973 238.31027 C 194.809546 240.428365 212.349113 255.240522 216.121063 273.16091 C 219.889385 291.081299 174.350345 310.231198 191.889912 319.360041 C 200.431202 323.799336 211.141363 313.049279 211.079707 313.379325 C 211.068826 314.021282 211.061572 314.670492 211.050692 315.308822 " stroke="#3b3b3b" stroke-width="4.615" stroke-opacity="1" stroke-miterlimit="10"/></g><path stroke-linecap="round" transform="matrix(1.077029, 0, 0, 1.077029, 59.399278, 6.469605)" fill="none" stroke-linejoin="round" d="M 187.019019 182.920638 C 175.079347 181.640351 162.650047 180.428975 151.450258 185.590018 C 140.250468 190.751061 130.719041 204.301065 132.539732 218.609086 C 134.360424 232.920734 151.399481 241.969787 159.349591 231.129058 C 167.459283 220.059836 184.890044 231.1617 185.038745 245.930334 C 185.191074 260.698968 173.251402 272.34849 161.130387 274.419436 C 149.009371 276.490381 136.920997 271.481667 125.391162 266.538237 C 111.910069 260.771506 112.718862 234.451275 124.408279 224.48825 C 136.090443 214.528852 152.230036 217.219993 165.551547 223.50174 C 178.880312 229.76898 191.389403 239.231496 205.519707 241.951652 C 219.650012 244.671808 236.63104 237.911314 241.088469 221.488825 C 246.180601 202.719747 270.121602 197.040061 280.708449 212.098846 C 291.298924 227.161257 282.779395 254.769028 266.610787 257.790215 C 240.359467 262.701003 216.879079 282.601665 208.990627 313.230623 " stroke="#3b3b3b" stroke-width="4.525" stroke-opacity="1" stroke-miterlimit="10"/></svg>