<svg width="171" height="96" viewBox="0 0 171 96" fill="none" xmlns="http://www.w3.org/2000/svg">
<path d="M100.043 56.7861C94.871 63.0537 94.871 68.3995 94.871 68.3995V72.0255H76.1234V68.3995C76.1234 68.3995 76.1234 63.0537 70.9517 56.7861C70.9517 56.7861 64.549 49.331 68.1611 39.6639C71.6772 30.2528 79.889 27.2856 85.0788 27.2861C85.2203 27.2861 85.3604 27.2884 85.4967 27.2926C85.6345 27.2884 85.7732 27.2861 85.9156 27.2861C91.1049 27.2861 99.3181 30.2532 102.833 39.6639C106.445 49.331 100.043 56.7861 100.043 56.7861ZM107.338 46.5704C107.461 43.8329 107.023 41.1079 106.038 38.4713C105.071 35.8819 103.732 33.5593 102.058 31.5662C100.553 29.7759 98.7796 28.2509 96.7868 27.0343C95.0357 25.9644 93.1413 25.1472 91.1578 24.6042C89.4071 24.1259 87.5939 23.8722 85.9156 23.8722C85.7755 23.8722 85.6354 23.8741 85.4967 23.8778C85.359 23.8741 85.2189 23.8722 85.0788 23.8722C83.4005 23.8722 81.5882 24.1259 79.8366 24.6042C77.8531 25.1472 75.9596 25.9639 74.2076 27.0343C72.2144 28.2505 70.441 29.7755 68.9367 31.5662C67.263 33.5593 65.9229 35.8819 64.9558 38.4713C63.971 41.1079 63.5335 43.8329 63.6565 46.5704C63.7539 48.7477 64.2052 50.9264 64.9975 53.0444C66.2722 56.4523 68.0168 58.6074 68.3262 58.9736C70.6293 61.7704 71.7064 64.3032 72.2046 65.9375C72.6578 67.4236 72.7033 68.3912 72.7033 68.3995V72.9921C72.7033 74.3431 73.8008 75.4389 75.1543 75.4389H95.8405C97.1941 75.4389 98.2911 74.3431 98.2911 72.9921V68.4343C98.2967 68.3185 98.3556 67.2569 98.8825 65.644C99.3937 64.0764 100.466 61.6481 102.669 58.9736C102.978 58.6074 104.722 56.4523 105.996 53.0444C106.789 50.9264 107.241 48.7477 107.338 46.5704Z" fill="#F27405"/>
<mask id="mask0_16_25" style="mask-type:luminance" maskUnits="userSpaceOnUse" x="83" y="3" width="5" height="14">
<path d="M83.7188 3.23102H87.2812V16.9481H83.7188V3.23102Z" fill="white"/>
</mask>
<g mask="url(#mask0_16_25)">
<path d="M87.2071 4.99445C87.2071 4.05232 86.4417 3.28796 85.4968 3.28796C84.5524 3.28796 83.787 4.05232 83.787 4.99445V16.888H87.2071V4.99445Z" fill="#F27405"/>
</g>
<mask id="mask1_16_25" style="mask-type:luminance" maskUnits="userSpaceOnUse" x="114" y="43" width="14" height="5">
<path d="M114.251 43.8519H127.883V47.4074H114.251V43.8519Z" fill="white"/>
</mask>
<g mask="url(#mask1_16_25)">
<path d="M126.174 43.8847H114.257V47.2991H126.174C127.118 47.2991 127.884 46.5347 127.884 45.5921C127.884 44.6491 127.118 43.8847 126.174 43.8847Z" fill="#F27405"/>
</g>
<path d="M107.043 64.6819L104.625 67.0958L113.05 75.5051C113.718 76.1718 114.801 76.1718 115.469 75.5051C116.137 74.8384 116.137 73.7579 115.469 73.0912L107.043 64.6819Z" fill="#F27405"/>
<path d="M115.469 18.0926C116.137 17.4259 116.137 16.3454 115.469 15.6787C114.801 15.012 113.718 15.012 113.05 15.6787L104.625 24.088L107.043 26.5019L115.469 18.0926Z" fill="#F27405"/>
<mask id="mask2_16_25" style="mask-type:luminance" maskUnits="userSpaceOnUse" x="43" y="43" width="14" height="5">
<path d="M43.1105 43.8519H56.7625V47.4074H43.1105V43.8519Z" fill="white"/>
</mask>
<g mask="url(#mask2_16_25)">
<path d="M56.737 43.8847H44.8208C43.8763 43.8847 43.1105 44.6491 43.1105 45.5921C43.1105 46.5347 43.8763 47.2991 44.8208 47.2991H56.737V43.8847Z" fill="#F27405"/>
</g>
<path d="M55.5254 73.0912C54.8579 73.7579 54.8579 74.8384 55.5254 75.5051C56.1934 76.1718 57.276 76.1718 57.944 75.5051L66.3706 67.0958L63.9511 64.6819L55.5254 73.0912Z" fill="#F27405"/>
<path d="M63.9511 26.5019L66.3706 24.088L57.944 15.6787C57.276 15.012 56.1934 15.012 55.5254 15.6787C54.8579 16.3454 54.8579 17.4259 55.5254 18.0926L63.9511 26.5019Z" fill="#F27405"/>
<path d="M85.1628 31.6477C85.0955 30.6542 84.1835 29.9403 83.1997 30.1037C78.6245 30.8648 75.7936 33.1542 74.1747 35.0569C73.3109 36.0722 72.7019 37.0782 72.2872 37.9005C71.8066 38.8532 72.3187 40.0056 73.3508 40.2829L73.3977 40.2954C74.1682 40.5028 74.979 40.1417 75.3385 39.4306C76.2593 37.6069 78.5949 34.338 83.7531 33.4732C84.6112 33.3292 85.2245 32.5681 85.1665 31.7014L85.1628 31.6477Z" fill="#F28705" fill-opacity="0.5"/>
<path d="M95.077 77.0366H75.8033C74.8918 77.0366 74.1533 77.8 74.1533 78.7426C74.1533 79.6856 74.8918 80.45 75.8033 80.45H95.077C95.988 80.45 96.7274 79.6856 96.7274 78.7426C96.7274 77.8 95.988 77.0366 95.077 77.0366Z" fill="#F28705" fill-opacity="0.5"/>
<path d="M95.077 82.0468H75.8033C74.8918 82.0468 74.1533 82.8111 74.1533 83.7537C74.1533 84.6968 74.8918 85.4611 75.8033 85.4611H95.077C95.988 85.4611 96.7274 84.6968 96.7274 83.7537C96.7274 82.8111 95.988 82.0468 95.077 82.0468Z" fill="#F28705" fill-opacity="0.5"/>
<mask id="mask3_16_25" style="mask-type:luminance" maskUnits="userSpaceOnUse" x="76" y="86" width="19" height="7">
<path d="M76.1188 86.9926H94.7625V92.7421H76.1188V86.9926Z" fill="white"/>
</mask>
<g mask="url(#mask3_16_25)">
<path d="M94.1214 87.0583H76.7588C76.2514 87.0583 75.9972 87.6704 76.3562 88.0278L79.2327 90.8991C80.0741 91.7389 81.1577 92.2963 82.3313 92.4829C83.1338 92.6092 84.1719 92.7116 85.4401 92.7116C86.7093 92.7116 87.7474 92.6092 88.5485 92.4829C89.7225 92.2963 90.8061 91.7389 91.6476 90.8991L94.5236 88.0278C94.8831 87.6704 94.6289 87.0583 94.1214 87.0583Z" fill="#F28705" fill-opacity="0.5"/>
</g>
</svg>
