<svg xmlns="http://www.w3.org/2000/svg" xmlns:xlink="http://www.w3.org/1999/xlink" width="1920" zoomAndPan="magnify" viewBox="0 0 1440 809.999993" height="1080" preserveAspectRatio="xMidYMid meet" version="1.0"><defs><g/><clipPath id="d3be02bdc1"><path d="M 51.890625 237.660156 L 339.890625 237.660156 L 339.890625 601 L 51.890625 601 Z M 51.890625 237.660156 " clip-rule="nonzero"/></clipPath></defs><g clip-path="url(#d3be02bdc1)"><path fill="#f28705" d="M 340.269531 242.96875 C 340.269531 245.867188 337.898438 248.238281 335 248.238281 C 321.902344 248.238281 309.566406 253.324219 300.316406 262.578125 C 291.066406 271.828125 285.980469 284.136719 285.980469 297.234375 L 285.980469 595.65625 C 285.980469 597.765625 284.738281 599.660156 282.789062 600.503906 C 282.128906 600.796875 281.417969 600.925781 280.707031 600.925781 C 279.390625 600.925781 278.097656 600.425781 277.097656 599.503906 L 168.90625 497.480469 L 60.71875 599.503906 C 59.191406 600.925781 56.949219 601.320312 55.027344 600.503906 C 53.074219 599.660156 51.835938 597.765625 51.835938 595.65625 L 51.835938 288.957031 C 51.835938 260.703125 74.820312 237.695312 103.070312 237.695312 L 335 237.695312 C 337.898438 237.695312 340.269531 240.070312 340.269531 242.96875 Z M 340.269531 242.96875 " fill-opacity="1" fill-rule="nonzero"/></g><g fill="#f27405" fill-opacity="1"><g transform="translate(309.477267, 385.496362)"><g><path d="M 72.5625 -114.3125 C 83.75 -114.3125 92 -111.617188 97.3125 -106.234375 C 102.625 -100.847656 106.117188 -93.890625 107.796875 -85.359375 L 104.234375 -87.25 L 105.921875 -90.609375 C 107.597656 -93.816406 110.179688 -97.273438 113.671875 -100.984375 C 117.171875 -104.691406 121.398438 -107.835938 126.359375 -110.421875 C 131.328125 -113.015625 136.882812 -114.3125 143.03125 -114.3125 C 153.101562 -114.3125 160.757812 -112.140625 166 -107.796875 C 171.25 -103.460938 174.851562 -97.695312 176.8125 -90.5 C 178.769531 -83.300781 179.75 -75.296875 179.75 -66.484375 L 179.75 -12.796875 C 179.75 -9.160156 178.554688 -6.117188 176.171875 -3.671875 C 173.796875 -1.222656 170.789062 0 167.15625 0 C 163.519531 0 160.515625 -1.222656 158.140625 -3.671875 C 155.765625 -6.117188 154.578125 -9.160156 154.578125 -12.796875 L 154.578125 -66.484375 C 154.578125 -71.097656 154.015625 -75.253906 152.890625 -78.953125 C 151.773438 -82.660156 149.75 -85.632812 146.8125 -87.875 C 143.875 -90.113281 139.679688 -91.234375 134.234375 -91.234375 C 128.921875 -91.234375 124.375 -90.113281 120.59375 -87.875 C 116.820312 -85.632812 113.988281 -82.660156 112.09375 -78.953125 C 110.207031 -75.253906 109.265625 -71.097656 109.265625 -66.484375 L 109.265625 -12.796875 C 109.265625 -9.160156 108.078125 -6.117188 105.703125 -3.671875 C 103.328125 -1.222656 100.320312 0 96.6875 0 C 93.050781 0 90.046875 -1.222656 87.671875 -3.671875 C 85.296875 -6.117188 84.109375 -9.160156 84.109375 -12.796875 L 84.109375 -66.484375 C 84.109375 -71.097656 83.546875 -75.253906 82.421875 -78.953125 C 81.304688 -82.660156 79.28125 -85.632812 76.34375 -87.875 C 73.40625 -90.113281 69.210938 -91.234375 63.765625 -91.234375 C 58.453125 -91.234375 53.90625 -90.113281 50.125 -87.875 C 46.351562 -85.632812 43.519531 -82.660156 41.625 -78.953125 C 39.738281 -75.253906 38.796875 -71.097656 38.796875 -66.484375 L 38.796875 -12.796875 C 38.796875 -9.160156 37.609375 -6.117188 35.234375 -3.671875 C 32.859375 -1.222656 29.851562 0 26.21875 0 C 22.582031 0 19.570312 -1.222656 17.1875 -3.671875 C 14.8125 -6.117188 13.625 -9.160156 13.625 -12.796875 L 13.625 -99.421875 C 13.625 -103.054688 14.8125 -106.09375 17.1875 -108.53125 C 19.570312 -110.976562 22.582031 -112.203125 26.21875 -112.203125 C 29.851562 -112.203125 32.859375 -110.976562 35.234375 -108.53125 C 37.609375 -106.09375 38.796875 -103.054688 38.796875 -99.421875 L 38.796875 -90.390625 L 35.65625 -91.03125 C 36.914062 -93.40625 38.660156 -95.953125 40.890625 -98.671875 C 43.128906 -101.398438 45.859375 -103.953125 49.078125 -106.328125 C 52.296875 -108.710938 55.859375 -110.640625 59.765625 -112.109375 C 63.679688 -113.578125 67.945312 -114.3125 72.5625 -114.3125 Z M 72.5625 -114.3125 "/></g></g></g><g fill="#f27405" fill-opacity="1"><g transform="translate(502.834325, 385.496362)"><g><path d="M 96.890625 -112.203125 C 100.523438 -112.203125 103.53125 -110.976562 105.90625 -108.53125 C 108.289062 -106.09375 109.484375 -103.054688 109.484375 -99.421875 L 109.484375 -10.28125 C 109.484375 2.582031 107.070312 12.820312 102.25 20.4375 C 97.425781 28.0625 90.957031 33.550781 82.84375 36.90625 C 74.738281 40.269531 65.648438 41.953125 55.578125 41.953125 C 51.109375 41.953125 46.351562 41.597656 41.3125 40.890625 C 36.28125 40.191406 32.15625 39.144531 28.9375 37.75 C 24.75 35.9375 21.847656 33.664062 20.234375 30.9375 C 18.628906 28.207031 18.316406 25.304688 19.296875 22.234375 C 20.554688 18.179688 22.582031 15.421875 25.375 13.953125 C 28.175781 12.484375 31.113281 12.304688 34.1875 13.421875 C 36.425781 14.117188 39.363281 15.203125 43 16.671875 C 46.632812 18.140625 50.828125 18.875 55.578125 18.875 C 62.015625 18.875 67.363281 18 71.625 16.25 C 75.882812 14.5 79.097656 11.5625 81.265625 7.4375 C 83.429688 3.320312 84.515625 -2.300781 84.515625 -9.4375 L 84.515625 -23.484375 L 88.921875 -18.453125 C 86.546875 -13.835938 83.578125 -10.023438 80.015625 -7.015625 C 76.453125 -4.015625 72.222656 -1.742188 67.328125 -0.203125 C 62.429688 1.328125 56.835938 2.09375 50.546875 2.09375 C 43.140625 2.09375 36.671875 0.382812 31.140625 -3.03125 C 25.617188 -6.457031 21.316406 -11.210938 18.234375 -17.296875 C 15.160156 -23.378906 13.625 -30.335938 13.625 -38.171875 L 13.625 -99.421875 C 13.625 -103.054688 14.8125 -106.09375 17.1875 -108.53125 C 19.570312 -110.976562 22.582031 -112.203125 26.21875 -112.203125 C 29.851562 -112.203125 32.859375 -110.976562 35.234375 -108.53125 C 37.609375 -106.09375 38.796875 -103.054688 38.796875 -99.421875 L 38.796875 -45.71875 C 38.796875 -36.632812 40.785156 -30.238281 44.765625 -26.53125 C 48.753906 -22.820312 54.316406 -20.96875 61.453125 -20.96875 C 66.347656 -20.96875 70.472656 -21.910156 73.828125 -23.796875 C 77.179688 -25.691406 79.765625 -28.488281 81.578125 -32.1875 C 83.398438 -35.894531 84.3125 -40.40625 84.3125 -45.71875 L 84.3125 -99.421875 C 84.3125 -103.054688 85.5 -106.09375 87.875 -108.53125 C 90.25 -110.976562 93.253906 -112.203125 96.890625 -112.203125 Z M 96.890625 -112.203125 "/></g></g></g><g fill="#f27405" fill-opacity="1"><g transform="translate(625.936922, 385.496362)"><g><path d="M 76.34375 -146.8125 C 83.613281 -146.8125 90.425781 -144.710938 96.78125 -140.515625 C 103.144531 -136.328125 108.285156 -130.664062 112.203125 -123.53125 C 116.117188 -116.40625 118.078125 -108.4375 118.078125 -99.625 C 118.078125 -90.957031 116.117188 -83.054688 112.203125 -75.921875 C 108.285156 -68.796875 103.144531 -63.097656 96.78125 -58.828125 C 90.425781 -54.566406 83.613281 -52.4375 76.34375 -52.4375 L 37.75 -52.4375 L 39.84375 -56.203125 L 39.84375 -12.796875 C 39.84375 -9.160156 38.722656 -6.117188 36.484375 -3.671875 C 34.253906 -1.222656 31.320312 0 27.6875 0 C 24.1875 0 21.316406 -1.222656 19.078125 -3.671875 C 16.847656 -6.117188 15.734375 -9.160156 15.734375 -12.796875 L 15.734375 -134.015625 C 15.734375 -137.648438 16.957031 -140.691406 19.40625 -143.140625 C 21.851562 -145.585938 24.894531 -146.8125 28.53125 -146.8125 Z M 76.34375 -76.34375 C 79 -76.34375 81.582031 -77.460938 84.09375 -79.703125 C 86.613281 -81.941406 88.710938 -84.84375 90.390625 -88.40625 C 92.066406 -91.96875 92.90625 -95.707031 92.90625 -99.625 C 92.90625 -103.675781 92.066406 -107.445312 90.390625 -110.9375 C 88.710938 -114.4375 86.613281 -117.269531 84.09375 -119.4375 C 81.582031 -121.601562 79 -122.6875 76.34375 -122.6875 L 37.328125 -122.6875 L 39.84375 -126.46875 L 39.84375 -72.984375 L 37.546875 -76.34375 Z M 76.34375 -76.34375 "/></g></g></g><g fill="#f27405" fill-opacity="1"><g transform="translate(752.394964, 385.496362)"><g><path d="M 26.21875 0 C 22.582031 0 19.570312 -1.222656 17.1875 -3.671875 C 14.8125 -6.117188 13.625 -9.160156 13.625 -12.796875 L 13.625 -99.421875 C 13.625 -103.054688 14.8125 -106.09375 17.1875 -108.53125 C 19.570312 -110.976562 22.582031 -112.203125 26.21875 -112.203125 C 29.851562 -112.203125 32.859375 -110.976562 35.234375 -108.53125 C 37.609375 -106.09375 38.796875 -103.054688 38.796875 -99.421875 L 38.796875 -79.703125 L 37.328125 -93.75 C 38.867188 -97.101562 40.863281 -100.070312 43.3125 -102.65625 C 45.757812 -105.25 48.519531 -107.414062 51.59375 -109.15625 C 54.664062 -110.90625 57.953125 -112.203125 61.453125 -113.046875 C 64.953125 -113.890625 68.445312 -114.3125 71.9375 -114.3125 C 76.132812 -114.3125 79.664062 -113.117188 82.53125 -110.734375 C 85.394531 -108.359375 86.828125 -105.5625 86.828125 -102.34375 C 86.828125 -97.726562 85.640625 -94.40625 83.265625 -92.375 C 80.890625 -90.351562 78.300781 -89.34375 75.5 -89.34375 C 72.84375 -89.34375 70.429688 -89.832031 68.265625 -90.8125 C 66.097656 -91.789062 63.617188 -92.28125 60.828125 -92.28125 C 58.304688 -92.28125 55.75 -91.6875 53.15625 -90.5 C 50.570312 -89.3125 48.195312 -87.457031 46.03125 -84.9375 C 43.863281 -82.425781 42.113281 -79.316406 40.78125 -75.609375 C 39.457031 -71.898438 38.796875 -67.53125 38.796875 -62.5 L 38.796875 -12.796875 C 38.796875 -9.160156 37.609375 -6.117188 35.234375 -3.671875 C 32.859375 -1.222656 29.851562 0 26.21875 0 Z M 26.21875 0 "/></g></g></g><g fill="#f27405" fill-opacity="1"><g transform="translate(843.411194, 385.496362)"><g><path d="M 122.484375 -56 C 122.484375 -44.53125 119.929688 -34.425781 114.828125 -25.6875 C 109.722656 -16.945312 102.867188 -10.128906 94.265625 -5.234375 C 85.671875 -0.347656 76.0625 2.09375 65.4375 2.09375 C 54.8125 2.09375 45.195312 -0.347656 36.59375 -5.234375 C 28 -10.128906 21.148438 -16.945312 16.046875 -25.6875 C 10.941406 -34.425781 8.390625 -44.53125 8.390625 -56 C 8.390625 -67.46875 10.941406 -77.570312 16.046875 -86.3125 C 21.148438 -95.050781 28 -101.898438 36.59375 -106.859375 C 45.195312 -111.828125 54.8125 -114.3125 65.4375 -114.3125 C 76.0625 -114.3125 85.671875 -111.828125 94.265625 -106.859375 C 102.867188 -101.898438 109.722656 -95.050781 114.828125 -86.3125 C 119.929688 -77.570312 122.484375 -67.46875 122.484375 -56 Z M 97.3125 -56 C 97.3125 -63.132812 95.878906 -69.320312 93.015625 -74.5625 C 90.148438 -79.800781 86.304688 -83.890625 81.484375 -86.828125 C 76.660156 -89.765625 71.3125 -91.234375 65.4375 -91.234375 C 59.5625 -91.234375 54.210938 -89.765625 49.390625 -86.828125 C 44.566406 -83.890625 40.722656 -79.800781 37.859375 -74.5625 C 34.992188 -69.320312 33.5625 -63.132812 33.5625 -56 C 33.5625 -49.007812 34.992188 -42.890625 37.859375 -37.640625 C 40.722656 -32.398438 44.566406 -28.3125 49.390625 -25.375 C 54.210938 -22.4375 59.5625 -20.96875 65.4375 -20.96875 C 71.3125 -20.96875 76.660156 -22.4375 81.484375 -25.375 C 86.304688 -28.3125 90.148438 -32.398438 93.015625 -37.640625 C 95.878906 -42.890625 97.3125 -49.007812 97.3125 -56 Z M 97.3125 -56 "/></g></g></g><g fill="#f27405" fill-opacity="1"><g transform="translate(974.273248, 385.496362)"><g><path d="M 41.953125 2.09375 C 41.953125 10.0625 40.410156 16.945312 37.328125 22.75 C 34.253906 28.550781 30.128906 33.0625 24.953125 36.28125 C 19.785156 39.5 13.984375 41.109375 7.546875 41.109375 C 4.054688 41.109375 1.226562 39.953125 -0.9375 37.640625 C -3.101562 35.335938 -4.1875 32.578125 -4.1875 29.359375 L -4.1875 27.0625 C -4.1875 23.976562 -3.171875 21.523438 -1.140625 19.703125 C 0.878906 17.890625 3.425781 16.492188 6.5 15.515625 C 9.851562 14.398438 12.226562 12.828125 13.625 10.796875 C 15.03125 8.773438 15.90625 6.363281 16.25 3.5625 C 16.601562 0.769531 16.78125 -2.164062 16.78125 -5.25 L 16.78125 -99.421875 C 16.78125 -103.054688 17.96875 -106.09375 20.34375 -108.53125 C 22.71875 -110.976562 25.722656 -112.203125 29.359375 -112.203125 C 32.992188 -112.203125 36 -110.976562 38.375 -108.53125 C 40.757812 -106.09375 41.953125 -103.054688 41.953125 -99.421875 Z M 28.9375 -125.84375 C 24.1875 -125.84375 20.832031 -126.609375 18.875 -128.140625 C 16.914062 -129.679688 15.9375 -132.410156 15.9375 -136.328125 L 15.9375 -140.3125 C 15.9375 -144.363281 17.019531 -147.125 19.1875 -148.59375 C 21.351562 -150.0625 24.675781 -150.796875 29.15625 -150.796875 C 34.050781 -150.796875 37.472656 -150.023438 39.421875 -148.484375 C 41.378906 -146.953125 42.359375 -144.226562 42.359375 -140.3125 L 42.359375 -136.328125 C 42.359375 -132.273438 41.3125 -129.515625 39.21875 -128.046875 C 37.125 -126.578125 33.695312 -125.84375 28.9375 -125.84375 Z M 28.9375 -125.84375 "/></g></g></g><g fill="#f27405" fill-opacity="1"><g transform="translate(1031.944801, 385.496362)"><g><path d="M 66.484375 2.09375 C 54.597656 2.09375 44.285156 -0.382812 35.546875 -5.34375 C 26.804688 -10.3125 20.09375 -17.054688 15.40625 -25.578125 C 10.726562 -34.109375 8.390625 -43.757812 8.390625 -54.53125 C 8.390625 -67.113281 10.941406 -77.84375 16.046875 -86.71875 C 21.148438 -95.601562 27.828125 -102.421875 36.078125 -107.171875 C 44.328125 -111.929688 53.066406 -114.3125 62.296875 -114.3125 C 69.421875 -114.3125 76.164062 -112.84375 82.53125 -109.90625 C 88.894531 -106.96875 94.519531 -102.945312 99.40625 -97.84375 C 104.300781 -92.738281 108.179688 -86.828125 111.046875 -80.109375 C 113.921875 -73.398438 115.359375 -66.269531 115.359375 -58.71875 C 115.210938 -55.363281 113.878906 -52.640625 111.359375 -50.546875 C 108.847656 -48.453125 105.914062 -47.40625 102.5625 -47.40625 L 22.4375 -47.40625 L 16.15625 -68.375 L 93.125 -68.375 L 88.515625 -64.171875 L 88.515625 -69.84375 C 88.234375 -73.894531 86.796875 -77.53125 84.203125 -80.75 C 81.617188 -83.96875 78.40625 -86.519531 74.5625 -88.40625 C 70.71875 -90.289062 66.628906 -91.234375 62.296875 -91.234375 C 58.097656 -91.234375 54.179688 -90.671875 50.546875 -89.546875 C 46.910156 -88.429688 43.765625 -86.546875 41.109375 -83.890625 C 38.453125 -81.234375 36.351562 -77.664062 34.8125 -73.1875 C 33.28125 -68.71875 32.515625 -63.054688 32.515625 -56.203125 C 32.515625 -48.660156 34.085938 -42.265625 37.234375 -37.015625 C 40.378906 -31.773438 44.429688 -27.789062 49.390625 -25.0625 C 54.359375 -22.332031 59.640625 -20.96875 65.234375 -20.96875 C 70.398438 -20.96875 74.519531 -21.382812 77.59375 -22.21875 C 80.675781 -23.0625 83.160156 -24.078125 85.046875 -25.265625 C 86.929688 -26.460938 88.644531 -27.476562 90.1875 -28.3125 C 92.707031 -29.570312 95.082031 -30.203125 97.3125 -30.203125 C 100.394531 -30.203125 102.945312 -29.148438 104.96875 -27.046875 C 107 -24.953125 108.015625 -22.507812 108.015625 -19.71875 C 108.015625 -15.9375 106.054688 -12.507812 102.140625 -9.4375 C 98.503906 -6.363281 93.398438 -3.671875 86.828125 -1.359375 C 80.253906 0.941406 73.472656 2.09375 66.484375 2.09375 Z M 66.484375 2.09375 "/></g></g></g><g fill="#f27405" fill-opacity="1"><g transform="translate(1155.676512, 385.496362)"><g><path d="M 63.546875 -114.3125 C 71.515625 -114.3125 78.46875 -113.46875 84.40625 -111.78125 C 90.351562 -110.101562 94.96875 -107.757812 98.25 -104.75 C 101.539062 -101.75 103.1875 -98.15625 103.1875 -93.96875 C 103.1875 -91.164062 102.347656 -88.539062 100.671875 -86.09375 C 98.992188 -83.644531 96.546875 -82.421875 93.328125 -82.421875 C 91.085938 -82.421875 89.234375 -82.734375 87.765625 -83.359375 C 86.304688 -83.992188 85.015625 -84.800781 83.890625 -85.78125 C 82.773438 -86.757812 81.445312 -87.671875 79.90625 -88.515625 C 78.507812 -89.347656 76.378906 -90.007812 73.515625 -90.5 C 70.648438 -90.988281 68.515625 -91.234375 67.109375 -91.234375 C 59.984375 -91.234375 53.9375 -89.691406 48.96875 -86.609375 C 44.007812 -83.535156 40.203125 -79.378906 37.546875 -74.140625 C 34.890625 -68.898438 33.5625 -62.851562 33.5625 -56 C 33.5625 -49.289062 34.921875 -43.3125 37.640625 -38.0625 C 40.367188 -32.820312 44.144531 -28.660156 48.96875 -25.578125 C 53.789062 -22.503906 59.347656 -20.96875 65.640625 -20.96875 C 69.140625 -20.96875 72.144531 -21.175781 74.65625 -21.59375 C 77.175781 -22.019531 79.273438 -22.648438 80.953125 -23.484375 C 82.910156 -24.609375 84.660156 -25.796875 86.203125 -27.046875 C 87.742188 -28.304688 90.050781 -28.9375 93.125 -28.9375 C 96.757812 -28.9375 99.554688 -27.78125 101.515625 -25.46875 C 103.472656 -23.164062 104.453125 -20.335938 104.453125 -16.984375 C 104.453125 -13.492188 102.492188 -10.3125 98.578125 -7.4375 C 94.660156 -4.570312 89.519531 -2.265625 83.15625 -0.515625 C 76.789062 1.222656 69.90625 2.09375 62.5 2.09375 C 51.457031 2.09375 41.878906 -0.457031 33.765625 -5.5625 C 25.660156 -10.664062 19.40625 -17.617188 15 -26.421875 C 10.59375 -35.234375 8.390625 -45.09375 8.390625 -56 C 8.390625 -67.46875 10.726562 -77.570312 15.40625 -86.3125 C 20.09375 -95.050781 26.597656 -101.898438 34.921875 -106.859375 C 43.242188 -111.828125 52.785156 -114.3125 63.546875 -114.3125 Z M 63.546875 -114.3125 "/></g></g></g><g fill="#f27405" fill-opacity="1"><g transform="translate(1264.72818, 385.496362)"><g><path d="M 14.890625 -110.109375 L 64.59375 -110.109375 C 67.945312 -110.109375 70.742188 -108.988281 72.984375 -106.75 C 75.222656 -104.519531 76.34375 -101.722656 76.34375 -98.359375 C 76.34375 -95.148438 75.222656 -92.460938 72.984375 -90.296875 C 70.742188 -88.128906 67.945312 -87.046875 64.59375 -87.046875 L 14.890625 -87.046875 C 11.535156 -87.046875 8.738281 -88.160156 6.5 -90.390625 C 4.257812 -92.628906 3.140625 -95.425781 3.140625 -98.78125 C 3.140625 -102 4.257812 -104.691406 6.5 -106.859375 C 8.738281 -109.023438 11.535156 -110.109375 14.890625 -110.109375 Z M 37.328125 -136.328125 C 40.960938 -136.328125 43.929688 -135.101562 46.234375 -132.65625 C 48.546875 -130.207031 49.703125 -127.164062 49.703125 -123.53125 L 49.703125 -30.203125 C 49.703125 -28.242188 50.085938 -26.632812 50.859375 -25.375 C 51.628906 -24.113281 52.675781 -23.203125 54 -22.640625 C 55.332031 -22.085938 56.769531 -21.8125 58.3125 -21.8125 C 59.988281 -21.8125 61.523438 -22.125 62.921875 -22.75 C 64.316406 -23.382812 65.925781 -23.703125 67.75 -23.703125 C 69.707031 -23.703125 71.488281 -22.789062 73.09375 -20.96875 C 74.695312 -19.15625 75.5 -16.640625 75.5 -13.421875 C 75.5 -9.503906 73.363281 -6.285156 69.09375 -3.765625 C 64.832031 -1.253906 60.257812 0 55.375 0 C 52.4375 0 49.179688 -0.242188 45.609375 -0.734375 C 42.046875 -1.222656 38.691406 -2.410156 35.546875 -4.296875 C 32.398438 -6.179688 29.773438 -9.082031 27.671875 -13 C 25.578125 -16.914062 24.53125 -22.300781 24.53125 -29.15625 L 24.53125 -123.53125 C 24.53125 -127.164062 25.753906 -130.207031 28.203125 -132.65625 C 30.648438 -135.101562 33.691406 -136.328125 37.328125 -136.328125 Z M 37.328125 -136.328125 "/></g></g></g><g fill="#f27405" fill-opacity="1"><g transform="translate(309.477267, 580.53277)"><g><path d="M 78.65625 -146.8125 C 88.71875 -146.8125 97.660156 -144.921875 105.484375 -141.140625 C 113.316406 -137.367188 119.925781 -132.09375 125.3125 -125.3125 C 130.695312 -118.53125 134.753906 -110.703125 137.484375 -101.828125 C 140.210938 -92.953125 141.578125 -83.476562 141.578125 -73.40625 C 141.578125 -59.84375 139.128906 -47.503906 134.234375 -36.390625 C 129.335938 -25.273438 122.238281 -16.429688 112.9375 -9.859375 C 103.644531 -3.285156 92.21875 0 78.65625 0 L 28.53125 0 C 24.894531 0 21.851562 -1.222656 19.40625 -3.671875 C 16.957031 -6.117188 15.734375 -9.160156 15.734375 -12.796875 L 15.734375 -134.015625 C 15.734375 -137.648438 16.957031 -140.691406 19.40625 -143.140625 C 21.851562 -145.585938 24.894531 -146.8125 28.53125 -146.8125 Z M 76.546875 -24.125 C 85.359375 -24.125 92.5625 -26.394531 98.15625 -30.9375 C 103.75 -35.476562 107.835938 -41.488281 110.421875 -48.96875 C 113.015625 -56.445312 114.3125 -64.59375 114.3125 -73.40625 C 114.3125 -79.976562 113.578125 -86.234375 112.109375 -92.171875 C 110.640625 -98.117188 108.363281 -103.363281 105.28125 -107.90625 C 102.207031 -112.445312 98.289062 -116.046875 93.53125 -118.703125 C 88.78125 -121.359375 83.117188 -122.6875 76.546875 -122.6875 L 39.84375 -122.6875 L 41.953125 -124.578125 L 41.953125 -21.8125 L 40.6875 -24.125 Z M 76.546875 -24.125 "/></g></g></g><g fill="#f27405" fill-opacity="1"><g transform="translate(459.42336, 580.53277)"><g><path d="M 37.328125 -12.796875 C 37.328125 -9.160156 36.140625 -6.117188 33.765625 -3.671875 C 31.390625 -1.222656 28.382812 0 24.75 0 C 21.113281 0 18.109375 -1.222656 15.734375 -3.671875 C 13.359375 -6.117188 12.171875 -9.160156 12.171875 -12.796875 L 12.171875 -99.421875 C 12.171875 -103.054688 13.359375 -106.09375 15.734375 -108.53125 C 18.109375 -110.976562 21.113281 -112.203125 24.75 -112.203125 C 28.382812 -112.203125 31.390625 -110.976562 33.765625 -108.53125 C 36.140625 -106.09375 37.328125 -103.054688 37.328125 -99.421875 Z M 24.53125 -125.84375 C 19.78125 -125.84375 16.425781 -126.609375 14.46875 -128.140625 C 12.507812 -129.679688 11.53125 -132.410156 11.53125 -136.328125 L 11.53125 -140.3125 C 11.53125 -144.363281 12.613281 -147.125 14.78125 -148.59375 C 16.945312 -150.0625 20.269531 -150.796875 24.75 -150.796875 C 29.644531 -150.796875 33.066406 -150.023438 35.015625 -148.484375 C 36.972656 -146.953125 37.953125 -144.226562 37.953125 -140.3125 L 37.953125 -136.328125 C 37.953125 -132.273438 36.90625 -129.515625 34.8125 -128.046875 C 32.71875 -126.578125 29.289062 -125.84375 24.53125 -125.84375 Z M 24.53125 -125.84375 "/></g></g></g><g fill="#f27405" fill-opacity="1"><g transform="translate(508.916051, 580.53277)"><g><path d="M 63.546875 -114.3125 C 71.515625 -114.3125 78.46875 -113.46875 84.40625 -111.78125 C 90.351562 -110.101562 94.96875 -107.757812 98.25 -104.75 C 101.539062 -101.75 103.1875 -98.15625 103.1875 -93.96875 C 103.1875 -91.164062 102.347656 -88.539062 100.671875 -86.09375 C 98.992188 -83.644531 96.546875 -82.421875 93.328125 -82.421875 C 91.085938 -82.421875 89.234375 -82.734375 87.765625 -83.359375 C 86.304688 -83.992188 85.015625 -84.800781 83.890625 -85.78125 C 82.773438 -86.757812 81.445312 -87.671875 79.90625 -88.515625 C 78.507812 -89.347656 76.378906 -90.007812 73.515625 -90.5 C 70.648438 -90.988281 68.515625 -91.234375 67.109375 -91.234375 C 59.984375 -91.234375 53.9375 -89.691406 48.96875 -86.609375 C 44.007812 -83.535156 40.203125 -79.378906 37.546875 -74.140625 C 34.890625 -68.898438 33.5625 -62.851562 33.5625 -56 C 33.5625 -49.289062 34.921875 -43.3125 37.640625 -38.0625 C 40.367188 -32.820312 44.144531 -28.660156 48.96875 -25.578125 C 53.789062 -22.503906 59.347656 -20.96875 65.640625 -20.96875 C 69.140625 -20.96875 72.144531 -21.175781 74.65625 -21.59375 C 77.175781 -22.019531 79.273438 -22.648438 80.953125 -23.484375 C 82.910156 -24.609375 84.660156 -25.796875 86.203125 -27.046875 C 87.742188 -28.304688 90.050781 -28.9375 93.125 -28.9375 C 96.757812 -28.9375 99.554688 -27.78125 101.515625 -25.46875 C 103.472656 -23.164062 104.453125 -20.335938 104.453125 -16.984375 C 104.453125 -13.492188 102.492188 -10.3125 98.578125 -7.4375 C 94.660156 -4.570312 89.519531 -2.265625 83.15625 -0.515625 C 76.789062 1.222656 69.90625 2.09375 62.5 2.09375 C 51.457031 2.09375 41.878906 -0.457031 33.765625 -5.5625 C 25.660156 -10.664062 19.40625 -17.617188 15 -26.421875 C 10.59375 -35.234375 8.390625 -45.09375 8.390625 -56 C 8.390625 -67.46875 10.726562 -77.570312 15.40625 -86.3125 C 20.09375 -95.050781 26.597656 -101.898438 34.921875 -106.859375 C 43.242188 -111.828125 52.785156 -114.3125 63.546875 -114.3125 Z M 63.546875 -114.3125 "/></g></g></g><g fill="#f27405" fill-opacity="1"><g transform="translate(617.967735, 580.53277)"><g><path d="M 14.890625 -110.109375 L 64.59375 -110.109375 C 67.945312 -110.109375 70.742188 -108.988281 72.984375 -106.75 C 75.222656 -104.519531 76.34375 -101.722656 76.34375 -98.359375 C 76.34375 -95.148438 75.222656 -92.460938 72.984375 -90.296875 C 70.742188 -88.128906 67.945312 -87.046875 64.59375 -87.046875 L 14.890625 -87.046875 C 11.535156 -87.046875 8.738281 -88.160156 6.5 -90.390625 C 4.257812 -92.628906 3.140625 -95.425781 3.140625 -98.78125 C 3.140625 -102 4.257812 -104.691406 6.5 -106.859375 C 8.738281 -109.023438 11.535156 -110.109375 14.890625 -110.109375 Z M 37.328125 -136.328125 C 40.960938 -136.328125 43.929688 -135.101562 46.234375 -132.65625 C 48.546875 -130.207031 49.703125 -127.164062 49.703125 -123.53125 L 49.703125 -30.203125 C 49.703125 -28.242188 50.085938 -26.632812 50.859375 -25.375 C 51.628906 -24.113281 52.675781 -23.203125 54 -22.640625 C 55.332031 -22.085938 56.769531 -21.8125 58.3125 -21.8125 C 59.988281 -21.8125 61.523438 -22.125 62.921875 -22.75 C 64.316406 -23.382812 65.925781 -23.703125 67.75 -23.703125 C 69.707031 -23.703125 71.488281 -22.789062 73.09375 -20.96875 C 74.695312 -19.15625 75.5 -16.640625 75.5 -13.421875 C 75.5 -9.503906 73.363281 -6.285156 69.09375 -3.765625 C 64.832031 -1.253906 60.257812 0 55.375 0 C 52.4375 0 49.179688 -0.242188 45.609375 -0.734375 C 42.046875 -1.222656 38.691406 -2.410156 35.546875 -4.296875 C 32.398438 -6.179688 29.773438 -9.082031 27.671875 -13 C 25.578125 -16.914062 24.53125 -22.300781 24.53125 -29.15625 L 24.53125 -123.53125 C 24.53125 -127.164062 25.753906 -130.207031 28.203125 -132.65625 C 30.648438 -135.101562 33.691406 -136.328125 37.328125 -136.328125 Z M 37.328125 -136.328125 "/></g></g></g><g fill="#f27405" fill-opacity="1"><g transform="translate(703.741112, 580.53277)"><g><path d="M 37.328125 -12.796875 C 37.328125 -9.160156 36.140625 -6.117188 33.765625 -3.671875 C 31.390625 -1.222656 28.382812 0 24.75 0 C 21.113281 0 18.109375 -1.222656 15.734375 -3.671875 C 13.359375 -6.117188 12.171875 -9.160156 12.171875 -12.796875 L 12.171875 -99.421875 C 12.171875 -103.054688 13.359375 -106.09375 15.734375 -108.53125 C 18.109375 -110.976562 21.113281 -112.203125 24.75 -112.203125 C 28.382812 -112.203125 31.390625 -110.976562 33.765625 -108.53125 C 36.140625 -106.09375 37.328125 -103.054688 37.328125 -99.421875 Z M 24.53125 -125.84375 C 19.78125 -125.84375 16.425781 -126.609375 14.46875 -128.140625 C 12.507812 -129.679688 11.53125 -132.410156 11.53125 -136.328125 L 11.53125 -140.3125 C 11.53125 -144.363281 12.613281 -147.125 14.78125 -148.59375 C 16.945312 -150.0625 20.269531 -150.796875 24.75 -150.796875 C 29.644531 -150.796875 33.066406 -150.023438 35.015625 -148.484375 C 36.972656 -146.953125 37.953125 -144.226562 37.953125 -140.3125 L 37.953125 -136.328125 C 37.953125 -132.273438 36.90625 -129.515625 34.8125 -128.046875 C 32.71875 -126.578125 29.289062 -125.84375 24.53125 -125.84375 Z M 24.53125 -125.84375 "/></g></g></g><g fill="#f27405" fill-opacity="1"><g transform="translate(753.233803, 580.53277)"><g><path d="M 122.484375 -56 C 122.484375 -44.53125 119.929688 -34.425781 114.828125 -25.6875 C 109.722656 -16.945312 102.867188 -10.128906 94.265625 -5.234375 C 85.671875 -0.347656 76.0625 2.09375 65.4375 2.09375 C 54.8125 2.09375 45.195312 -0.347656 36.59375 -5.234375 C 28 -10.128906 21.148438 -16.945312 16.046875 -25.6875 C 10.941406 -34.425781 8.390625 -44.53125 8.390625 -56 C 8.390625 -67.46875 10.941406 -77.570312 16.046875 -86.3125 C 21.148438 -95.050781 28 -101.898438 36.59375 -106.859375 C 45.195312 -111.828125 54.8125 -114.3125 65.4375 -114.3125 C 76.0625 -114.3125 85.671875 -111.828125 94.265625 -106.859375 C 102.867188 -101.898438 109.722656 -95.050781 114.828125 -86.3125 C 119.929688 -77.570312 122.484375 -67.46875 122.484375 -56 Z M 97.3125 -56 C 97.3125 -63.132812 95.878906 -69.320312 93.015625 -74.5625 C 90.148438 -79.800781 86.304688 -83.890625 81.484375 -86.828125 C 76.660156 -89.765625 71.3125 -91.234375 65.4375 -91.234375 C 59.5625 -91.234375 54.210938 -89.765625 49.390625 -86.828125 C 44.566406 -83.890625 40.722656 -79.800781 37.859375 -74.5625 C 34.992188 -69.320312 33.5625 -63.132812 33.5625 -56 C 33.5625 -49.007812 34.992188 -42.890625 37.859375 -37.640625 C 40.722656 -32.398438 44.566406 -28.3125 49.390625 -25.375 C 54.210938 -22.4375 59.5625 -20.96875 65.4375 -20.96875 C 71.3125 -20.96875 76.660156 -22.4375 81.484375 -25.375 C 86.304688 -28.3125 90.148438 -32.398438 93.015625 -37.640625 C 95.878906 -42.890625 97.3125 -49.007812 97.3125 -56 Z M 97.3125 -56 "/></g></g></g><g fill="#f27405" fill-opacity="1"><g transform="translate(884.095824, 580.53277)"><g><path d="M 73.609375 -114.3125 C 83.960938 -114.3125 91.828125 -112.140625 97.203125 -107.796875 C 102.585938 -103.460938 106.296875 -97.695312 108.328125 -90.5 C 110.359375 -83.300781 111.375 -75.296875 111.375 -66.484375 L 111.375 -12.796875 C 111.375 -9.160156 110.179688 -6.117188 107.796875 -3.671875 C 105.421875 -1.222656 102.414062 0 98.78125 0 C 95.144531 0 92.140625 -1.222656 89.765625 -3.671875 C 87.390625 -6.117188 86.203125 -9.160156 86.203125 -12.796875 L 86.203125 -66.484375 C 86.203125 -71.097656 85.609375 -75.253906 84.421875 -78.953125 C 83.234375 -82.660156 81.097656 -85.632812 78.015625 -87.875 C 74.941406 -90.113281 70.539062 -91.234375 64.8125 -91.234375 C 59.21875 -91.234375 54.5 -90.113281 50.65625 -87.875 C 46.8125 -85.632812 43.875 -82.660156 41.84375 -78.953125 C 39.8125 -75.253906 38.796875 -71.097656 38.796875 -66.484375 L 38.796875 -12.796875 C 38.796875 -9.160156 37.609375 -6.117188 35.234375 -3.671875 C 32.859375 -1.222656 29.851562 0 26.21875 0 C 22.582031 0 19.570312 -1.222656 17.1875 -3.671875 C 14.8125 -6.117188 13.625 -9.160156 13.625 -12.796875 L 13.625 -99.421875 C 13.625 -103.054688 14.8125 -106.09375 17.1875 -108.53125 C 19.570312 -110.976562 22.582031 -112.203125 26.21875 -112.203125 C 29.851562 -112.203125 32.859375 -110.976562 35.234375 -108.53125 C 37.609375 -106.09375 38.796875 -103.054688 38.796875 -99.421875 L 38.796875 -90.390625 L 35.65625 -91.03125 C 36.914062 -93.40625 38.734375 -95.953125 41.109375 -98.671875 C 43.484375 -101.398438 46.28125 -103.953125 49.5 -106.328125 C 52.71875 -108.710938 56.351562 -110.640625 60.40625 -112.109375 C 64.457031 -113.578125 68.859375 -114.3125 73.609375 -114.3125 Z M 73.609375 -114.3125 "/></g></g></g><g fill="#f27405" fill-opacity="1"><g transform="translate(1009.085862, 580.53277)"><g><path d="M 105.5 -114.3125 C 109.132812 -114.3125 112.140625 -113.117188 114.515625 -110.734375 C 116.890625 -108.359375 118.078125 -105.285156 118.078125 -101.515625 L 118.078125 -12.796875 C 118.078125 -9.160156 116.890625 -6.117188 114.515625 -3.671875 C 112.140625 -1.222656 109.132812 0 105.5 0 C 101.863281 0 98.851562 -1.222656 96.46875 -3.671875 C 94.09375 -6.117188 92.90625 -9.160156 92.90625 -12.796875 L 92.90625 -23.078125 L 97.53125 -21.1875 C 97.53125 -19.363281 96.550781 -17.160156 94.59375 -14.578125 C 92.632812 -11.992188 89.976562 -9.441406 86.625 -6.921875 C 83.269531 -4.398438 79.316406 -2.265625 74.765625 -0.515625 C 70.222656 1.222656 65.296875 2.09375 59.984375 2.09375 C 50.335938 2.09375 41.597656 -0.382812 33.765625 -5.34375 C 25.929688 -10.3125 19.742188 -17.164062 15.203125 -25.90625 C 10.660156 -34.644531 8.390625 -44.675781 8.390625 -56 C 8.390625 -67.46875 10.660156 -77.570312 15.203125 -86.3125 C 19.742188 -95.050781 25.859375 -101.898438 33.546875 -106.859375 C 41.242188 -111.828125 49.773438 -114.3125 59.140625 -114.3125 C 65.148438 -114.3125 70.671875 -113.398438 75.703125 -111.578125 C 80.742188 -109.765625 85.113281 -107.457031 88.8125 -104.65625 C 92.519531 -101.863281 95.390625 -99.03125 97.421875 -96.15625 C 99.453125 -93.289062 100.46875 -90.878906 100.46875 -88.921875 L 92.90625 -86.203125 L 92.90625 -101.515625 C 92.90625 -105.148438 94.09375 -108.191406 96.46875 -110.640625 C 98.851562 -113.085938 101.863281 -114.3125 105.5 -114.3125 Z M 63.125 -20.96875 C 69.28125 -20.96875 74.664062 -22.503906 79.28125 -25.578125 C 83.894531 -28.660156 87.492188 -32.859375 90.078125 -38.171875 C 92.671875 -43.484375 93.96875 -49.425781 93.96875 -56 C 93.96875 -62.707031 92.671875 -68.71875 90.078125 -74.03125 C 87.492188 -79.34375 83.894531 -83.535156 79.28125 -86.609375 C 74.664062 -89.691406 69.28125 -91.234375 63.125 -91.234375 C 57.113281 -91.234375 51.800781 -89.691406 47.1875 -86.609375 C 42.570312 -83.535156 38.972656 -79.34375 36.390625 -74.03125 C 33.804688 -68.71875 32.515625 -62.707031 32.515625 -56 C 32.515625 -49.425781 33.804688 -43.484375 36.390625 -38.171875 C 38.972656 -32.859375 42.570312 -28.660156 47.1875 -25.578125 C 51.800781 -22.503906 57.113281 -20.96875 63.125 -20.96875 Z M 63.125 -20.96875 "/></g></g></g><g fill="#f27405" fill-opacity="1"><g transform="translate(1140.786757, 580.53277)"><g><path d="M 26.21875 0 C 22.582031 0 19.570312 -1.222656 17.1875 -3.671875 C 14.8125 -6.117188 13.625 -9.160156 13.625 -12.796875 L 13.625 -99.421875 C 13.625 -103.054688 14.8125 -106.09375 17.1875 -108.53125 C 19.570312 -110.976562 22.582031 -112.203125 26.21875 -112.203125 C 29.851562 -112.203125 32.859375 -110.976562 35.234375 -108.53125 C 37.609375 -106.09375 38.796875 -103.054688 38.796875 -99.421875 L 38.796875 -79.703125 L 37.328125 -93.75 C 38.867188 -97.101562 40.863281 -100.070312 43.3125 -102.65625 C 45.757812 -105.25 48.519531 -107.414062 51.59375 -109.15625 C 54.664062 -110.90625 57.953125 -112.203125 61.453125 -113.046875 C 64.953125 -113.890625 68.445312 -114.3125 71.9375 -114.3125 C 76.132812 -114.3125 79.664062 -113.117188 82.53125 -110.734375 C 85.394531 -108.359375 86.828125 -105.5625 86.828125 -102.34375 C 86.828125 -97.726562 85.640625 -94.40625 83.265625 -92.375 C 80.890625 -90.351562 78.300781 -89.34375 75.5 -89.34375 C 72.84375 -89.34375 70.429688 -89.832031 68.265625 -90.8125 C 66.097656 -91.789062 63.617188 -92.28125 60.828125 -92.28125 C 58.304688 -92.28125 55.75 -91.6875 53.15625 -90.5 C 50.570312 -89.3125 48.195312 -87.457031 46.03125 -84.9375 C 43.863281 -82.425781 42.113281 -79.316406 40.78125 -75.609375 C 39.457031 -71.898438 38.796875 -67.53125 38.796875 -62.5 L 38.796875 -12.796875 C 38.796875 -9.160156 37.609375 -6.117188 35.234375 -3.671875 C 32.859375 -1.222656 29.851562 0 26.21875 0 Z M 26.21875 0 "/></g></g></g><g fill="#f27405" fill-opacity="1"><g transform="translate(1231.802955, 580.53277)"><g><path d="M 96.890625 -112.203125 C 100.523438 -112.203125 103.53125 -110.976562 105.90625 -108.53125 C 108.289062 -106.09375 109.484375 -103.054688 109.484375 -99.421875 L 109.484375 -10.28125 C 109.484375 2.582031 107.070312 12.820312 102.25 20.4375 C 97.425781 28.0625 90.957031 33.550781 82.84375 36.90625 C 74.738281 40.269531 65.648438 41.953125 55.578125 41.953125 C 51.109375 41.953125 46.351562 41.597656 41.3125 40.890625 C 36.28125 40.191406 32.15625 39.144531 28.9375 37.75 C 24.75 35.9375 21.847656 33.664062 20.234375 30.9375 C 18.628906 28.207031 18.316406 25.304688 19.296875 22.234375 C 20.554688 18.179688 22.582031 15.421875 25.375 13.953125 C 28.175781 12.484375 31.113281 12.304688 34.1875 13.421875 C 36.425781 14.117188 39.363281 15.203125 43 16.671875 C 46.632812 18.140625 50.828125 18.875 55.578125 18.875 C 62.015625 18.875 67.363281 18 71.625 16.25 C 75.882812 14.5 79.097656 11.5625 81.265625 7.4375 C 83.429688 3.320312 84.515625 -2.300781 84.515625 -9.4375 L 84.515625 -23.484375 L 88.921875 -18.453125 C 86.546875 -13.835938 83.578125 -10.023438 80.015625 -7.015625 C 76.453125 -4.015625 72.222656 -1.742188 67.328125 -0.203125 C 62.429688 1.328125 56.835938 2.09375 50.546875 2.09375 C 43.140625 2.09375 36.671875 0.382812 31.140625 -3.03125 C 25.617188 -6.457031 21.316406 -11.210938 18.234375 -17.296875 C 15.160156 -23.378906 13.625 -30.335938 13.625 -38.171875 L 13.625 -99.421875 C 13.625 -103.054688 14.8125 -106.09375 17.1875 -108.53125 C 19.570312 -110.976562 22.582031 -112.203125 26.21875 -112.203125 C 29.851562 -112.203125 32.859375 -110.976562 35.234375 -108.53125 C 37.609375 -106.09375 38.796875 -103.054688 38.796875 -99.421875 L 38.796875 -45.71875 C 38.796875 -36.632812 40.785156 -30.238281 44.765625 -26.53125 C 48.753906 -22.820312 54.316406 -20.96875 61.453125 -20.96875 C 66.347656 -20.96875 70.472656 -21.910156 73.828125 -23.796875 C 77.179688 -25.691406 79.765625 -28.488281 81.578125 -32.1875 C 83.398438 -35.894531 84.3125 -40.40625 84.3125 -45.71875 L 84.3125 -99.421875 C 84.3125 -103.054688 85.5 -106.09375 87.875 -108.53125 C 90.25 -110.976562 93.253906 -112.203125 96.890625 -112.203125 Z M 96.890625 -112.203125 "/></g></g></g></svg>